<svg width="512" height="512" viewBox="0 0 512 512" fill="none" xmlns="http://www.w3.org/2000/svg">
<path d="M429 258C429 387.582 348.591 487 255.5 487C162.409 487 82 387.582 82 258C82 128.418 162.409 29 255.5 29C348.591 29 429 128.418 429 258Z" stroke="#D7E814" stroke-width="24"/>
<path d="M278.559 413.959L395.204 321.448C406.57 312.434 411.308 297.41 407.169 283.506L360.537 126.838C356.056 111.786 342.217 101.466 326.512 101.466H186.488C170.783 101.466 156.944 111.786 152.463 126.838L105.831 283.506C101.692 297.41 106.43 312.434 117.796 321.448L234.441 413.959C247.362 424.206 265.638 424.206 278.559 413.959Z" stroke="#E6FF9E" stroke-width="51"/>
</svg>
