<svg width="512" height="512" viewBox="0 0 512 512" fill="none" xmlns="http://www.w3.org/2000/svg">
<path d="M430 256C430 385.582 349.591 485 256.5 485C163.409 485 83 385.582 83 256C83 126.418 163.409 27 256.5 27C349.591 27 430 126.418 430 256Z" stroke="#D7E814" stroke-opacity="0.53" stroke-width="24"/>
<path d="M278.624 87.0945L384.901 151.809C397.865 159.703 405.777 173.784 405.777 188.963V324.037C405.777 339.216 397.865 353.297 384.901 361.191L278.624 425.905C264.728 434.367 247.272 434.367 233.376 425.905L127.099 361.191C114.135 353.297 106.223 339.216 106.223 324.037V188.963C106.223 173.784 114.135 159.703 127.099 151.809L233.376 87.0945C247.272 78.633 264.728 78.633 278.624 87.0945Z" stroke="#BAFB00" stroke-width="33"/>
</svg>
