<svg width="512" height="512" viewBox="0 0 512 512" fill="none" xmlns="http://www.w3.org/2000/svg">
<g clip-path="url(#clip0_1_2)">
<path d="M420 256C420 382.65 341.792 475 256.5 475C171.208 475 93 382.65 93 256C93 129.35 171.208 37 256.5 37C341.792 37 420 129.35 420 256Z" stroke="url(#paint0_linear_1_2)" stroke-width="44"/>
<path d="M274.384 35.6812L355.551 225.123C361.205 238.321 351.525 253 337.167 253H174.833C160.475 253 150.795 238.321 156.449 225.123L237.616 35.6812C244.542 19.5166 267.458 19.5166 274.384 35.6812Z" stroke="#FAFF00" stroke-width="14"/>
<path d="M216.838 222.872C208.561 222.872 201.649 221.848 196.102 219.8C190.555 217.837 186.374 215.064 183.558 211.48C180.827 207.981 179.462 203.928 179.462 199.32C179.462 197.187 179.931 195.096 180.87 193.048C181.809 191 183.259 189.293 185.222 187.928C186.331 187.16 187.526 186.52 188.806 186.008C190.086 185.496 191.75 185.112 193.798 184.856C195.931 184.6 198.705 184.472 202.118 184.472H297.734L298.118 193.688H203.526C200.881 193.688 198.833 193.731 197.382 193.816C196.017 193.901 194.993 194.072 194.31 194.328C193.627 194.584 192.945 194.968 192.262 195.48C190.982 196.504 190.342 197.955 190.342 199.832C190.342 204.013 192.603 207.341 197.126 209.816C201.649 212.291 208.475 213.528 217.606 213.528H219.782C228.401 213.528 235.782 212.504 241.926 210.456C248.155 208.493 253.275 205.763 257.286 202.264C261.382 198.765 264.454 194.797 266.502 190.36L267.014 187.928C267.782 185.795 268.337 183.661 268.678 181.528C269.019 179.309 269.19 177.091 269.19 174.872C269.19 169.923 268.337 165.229 266.63 160.792C264.923 156.355 262.278 152.643 258.694 149.656C255.195 146.584 250.673 144.621 245.126 143.768C244.017 143.597 242.95 143.512 241.926 143.512C240.987 143.427 239.963 143.384 238.854 143.384C236.209 143.384 233.777 143.853 231.558 144.792C229.339 145.731 227.547 147.139 226.182 149.016C224.902 150.893 224.262 153.283 224.262 156.184C224.262 159.341 225.201 162.029 227.078 164.248C229.041 166.381 231.771 167.448 235.27 167.448C238.513 167.448 241.073 166.467 242.95 164.504C244.913 162.456 245.894 159.555 245.894 155.8C245.894 152.984 245.425 150.467 244.486 148.248C243.633 145.944 242.097 143.768 239.878 141.72L247.174 139.544C248.71 140.824 250.118 142.317 251.398 144.024C252.763 145.731 253.83 147.651 254.598 149.784C255.451 151.832 255.878 154.008 255.878 156.312C255.878 159.299 255.409 162.029 254.47 164.504C253.617 166.893 252.294 168.984 250.502 170.776C248.71 172.483 246.491 173.805 243.846 174.744C241.286 175.683 238.342 176.152 235.014 176.152C231.174 176.152 227.675 175.427 224.518 173.976C221.361 172.525 218.843 170.349 216.966 167.448C215.089 164.547 214.15 160.963 214.15 156.696C214.15 151.405 215.387 147.139 217.862 143.896C220.337 140.653 223.537 138.307 227.462 136.856C231.473 135.32 235.697 134.552 240.134 134.552C246.705 134.552 252.465 135.661 257.414 137.88C262.449 140.099 266.63 143.128 269.958 146.968C273.371 150.808 275.931 155.117 277.638 159.896C279.345 164.675 280.198 169.624 280.198 174.744C280.198 177.048 280.07 179.309 279.814 181.528C279.558 183.661 279.174 185.752 278.662 187.8L277.894 190.616C275.505 197.613 271.494 203.501 265.862 208.28C260.315 213.059 253.574 216.685 245.638 219.16C237.787 221.635 229.083 222.872 219.526 222.872H216.838ZM296.966 226.712V136.088H307.974V226.712H296.966Z" fill="#DFE320"/>
</g>
<defs>
<linearGradient id="paint0_linear_1_2" x1="256.5" y1="15" x2="256.5" y2="497" gradientUnits="userSpaceOnUse">
<stop/>
<stop offset="1" stop-color="#FFF500"/>
</linearGradient>
<clipPath id="clip0_1_2">
<rect width="512" height="512" fill="white"/>
</clipPath>
</defs>
</svg>
