<svg width="512" height="512" viewBox="0 0 512 512" fill="none" xmlns="http://www.w3.org/2000/svg">
<path d="M430 256C430 385.582 349.591 485 256.5 485C163.409 485 83 385.582 83 256C83 126.418 163.409 27 256.5 27C349.591 27 430 126.418 430 256Z" stroke="#D7E814" stroke-opacity="0.53" stroke-width="24"/>
<path d="M278.624 87.0945L384.901 151.809C397.865 159.703 405.777 173.784 405.777 188.963V324.037C405.777 339.216 397.865 353.297 384.901 361.191L278.624 425.905C264.728 434.367 247.272 434.367 233.376 425.905L127.099 361.191C114.135 353.297 106.223 339.216 106.223 324.037V188.963C106.223 173.784 114.135 159.703 127.099 151.809L233.376 87.0945C247.272 78.633 264.728 78.633 278.624 87.0945Z" stroke="#BAFB00" stroke-width="33"/>
<path d="M217.206 317.088C211.659 317.088 206.88 316.107 202.87 314.144C198.944 312.267 195.915 309.536 193.782 305.952C191.734 302.368 190.71 298.101 190.71 293.152C190.71 287.093 192.246 281.76 195.318 277.152C198.475 272.544 202.656 268.704 207.862 265.632C212.896 262.645 218.699 260.427 225.27 258.976C231.84 257.44 238.667 256.672 245.75 256.672C252.576 256.672 258.763 257.269 264.31 258.464C269.942 259.573 274.891 261.152 279.158 263.2C284.022 265.504 288.075 268.277 291.318 271.52C294.56 274.677 296.95 278.091 298.486 281.76C300.107 285.515 300.918 289.312 300.918 293.152C300.918 300.576 298.571 306.421 293.878 310.688C289.27 314.955 282.571 317.088 273.782 317.088C267.808 317.088 261.963 316.235 256.246 314.528C250.614 312.907 245.152 310.432 239.862 307.104C235.424 304.971 231.115 302.069 226.934 298.4C222.752 294.731 218.87 290.592 215.286 285.984C211.787 281.461 208.8 276.853 206.326 272.16C202.4 265.077 199.371 257.952 197.238 250.784C195.19 243.531 194.166 235.765 194.166 227.488C194.166 220.064 195.403 212.811 197.878 205.728C200.438 198.645 204.278 192.288 209.398 186.656C214.603 181.024 221.131 176.544 228.982 173.216C236.918 169.803 246.262 168.096 257.014 168.096C267.51 168.096 276.512 169.547 284.022 172.448C291.616 175.349 297.888 179.701 302.838 185.504C306.08 189.344 308.768 193.611 310.902 198.304C313.035 202.997 314.614 208.331 315.638 214.304C316.747 220.192 317.302 227.019 317.302 234.784V276H306.294V241.184C306.294 232.992 305.824 225.696 304.886 219.296C303.947 212.896 302.454 207.307 300.406 202.528C298.358 197.664 295.67 193.525 292.342 190.112C288.331 185.931 283.467 182.816 277.75 180.768C272.032 178.72 265.12 177.696 257.014 177.696C249.846 177.696 243.104 178.805 236.79 181.024C230.56 183.157 225.056 186.357 220.278 190.624C215.584 194.891 211.872 200.139 209.142 206.368C206.496 212.597 205.174 219.808 205.174 228C205.174 233.291 205.558 238.155 206.326 242.592C207.094 246.944 208.246 251.125 209.782 255.136C211.318 259.147 213.152 263.243 215.286 267.424C217.248 271.605 219.894 275.872 223.222 280.224C226.55 284.576 230.432 288.672 234.87 292.512C239.307 296.352 244.086 299.637 249.206 302.368C252.875 304.416 256.587 305.824 260.342 306.592C264.182 307.445 268.278 307.872 272.63 307.872C278.944 307.872 283.382 306.421 285.942 303.52C288.587 300.704 289.91 297.035 289.91 292.512C289.91 288.16 288.587 284.192 285.942 280.608C283.296 277.024 279.883 274.165 275.702 272.032C271.606 269.899 266.955 268.363 261.75 267.424C256.63 266.4 251.382 265.888 246.006 265.888C238.496 265.888 231.926 266.656 226.294 268.192C220.747 269.643 216.182 271.563 212.598 273.952C208.843 276.427 206.07 279.243 204.278 282.4C202.486 285.643 201.59 288.971 201.59 292.384C201.59 297.077 202.912 300.832 205.558 303.648C208.288 306.464 212.683 307.872 218.742 307.872C222.496 307.872 226.08 307.573 229.494 306.976C232.907 306.464 236.278 305.269 239.606 303.392C244.896 301.003 249.76 297.76 254.198 293.664C258.635 289.568 262.432 285.045 265.59 280.096C268.832 275.147 271.136 270.24 272.502 265.376C273.696 261.877 274.55 258.379 275.062 254.88C275.659 251.296 275.958 247.669 275.958 244C275.958 237.856 275.104 232.693 273.398 228.512C271.776 224.245 269.643 220.875 266.998 218.4C264.352 215.925 261.579 214.219 258.678 213.28L252.278 212.64C251.68 212.555 250.955 212.512 250.102 212.512C249.334 212.427 248.566 212.384 247.798 212.384C244.726 212.384 241.952 212.853 239.478 213.792C237.088 214.645 235.168 216.011 233.718 217.888C232.267 219.765 231.542 222.112 231.542 224.928C231.542 228.085 232.48 230.731 234.358 232.864C236.32 234.997 239.051 236.064 242.55 236.064C245.707 236.064 248.267 235.083 250.229 233.12C252.192 231.072 253.174 228.213 253.174 224.544C253.174 221.813 252.662 219.296 251.638 216.992C250.614 214.688 248.992 212.384 246.774 210.08L257.014 210.72C258.208 211.915 259.232 213.323 260.086 214.944C261.024 216.48 261.75 218.187 262.262 220.064C262.859 221.856 263.158 223.776 263.158 225.824C263.158 229.493 262.347 232.779 260.726 235.68C259.104 238.496 256.758 240.715 253.686 242.336C250.613 243.957 246.816 244.768 242.294 244.768C238.454 244.768 234.955 243.957 231.798 242.336C228.64 240.715 226.123 238.411 224.246 235.424C222.368 232.437 221.43 228.981 221.43 225.056C221.43 220.192 222.667 216.181 225.142 213.024C227.702 209.781 231.158 207.392 235.51 205.856C239.862 204.32 244.726 203.552 250.102 203.552C258.294 203.552 265.12 205.216 270.582 208.544C276.043 211.872 280.139 216.523 282.87 222.496C285.686 228.469 287.094 235.467 287.094 243.488C287.094 247.243 286.71 251.637 285.942 256.672C285.174 261.707 283.723 266.656 281.59 271.52C279.712 276.725 277.238 281.589 274.166 286.112C271.179 290.635 267.723 294.731 263.798 298.4C259.872 302.069 255.606 305.227 250.998 307.872C245.536 310.773 239.99 313.035 234.358 314.656C228.726 316.277 223.008 317.088 217.206 317.088Z" fill="white"/>
</svg>
