<svg width="512" height="512" viewBox="0 0 512 512" fill="none" xmlns="http://www.w3.org/2000/svg">
<path d="M430 256C430 385.582 349.591 485 256.5 485C163.409 485 83 385.582 83 256C83 126.418 163.409 27 256.5 27C349.591 27 430 126.418 430 256Z" stroke="#D7E814" stroke-width="24"/>
<path d="M240.831 185.552C249.962 185.552 257.386 186.832 263.104 189.392C268.821 191.867 273.002 195.237 275.648 199.504C278.378 203.685 279.744 208.293 279.744 213.328C279.744 218.277 278.848 222.416 277.056 225.744C275.263 228.987 272.703 231.632 269.375 233.68C266.047 235.643 262.079 237.179 257.472 238.288C252.863 239.312 247.786 240.123 242.239 240.72L231.999 241.744C227.306 242.171 224.362 242.683 223.167 243.28C221.973 243.877 221.375 244.731 221.375 245.84C221.375 246.864 221.717 247.632 222.399 248.144C223.167 248.571 224.362 248.784 225.983 248.784H337.088V258H227.135C223.125 258 219.882 257.488 217.407 256.464C215.018 255.355 213.269 253.904 212.159 252.112C211.135 250.235 210.623 248.187 210.623 245.968C210.623 243.408 211.306 241.232 212.671 239.44C214.037 237.648 216.255 236.197 219.327 235.088C222.399 233.979 226.495 233.168 231.615 232.656L241.471 231.76C249.237 230.992 255.039 229.712 258.879 227.92C262.805 226.043 265.407 223.824 266.687 221.264C268.053 218.704 268.736 216.059 268.736 213.328C268.736 209.744 267.797 206.587 265.919 203.856C264.127 201.125 261.439 198.949 257.855 197.328C254.357 195.621 250.047 194.683 244.927 194.512L241.343 194.384C240.405 194.384 239.423 194.384 238.399 194.384C237.461 194.384 236.778 194.384 236.351 194.384C231.743 194.384 227.861 195.408 224.703 197.456C221.631 199.504 220.095 202.661 220.095 206.928C220.095 210.085 220.991 212.731 222.783 214.864C224.575 216.997 227.349 218.064 231.103 218.064C234.346 218.064 236.906 217.083 238.783 215.12C240.746 213.072 241.727 210.213 241.727 206.544C241.727 204.069 241.258 201.68 240.319 199.376C239.466 196.987 237.93 194.768 235.711 192.72L243.391 190.544C244.927 191.739 246.293 193.232 247.487 195.024C248.767 196.731 249.791 198.651 250.559 200.784C251.327 202.917 251.711 205.264 251.711 207.824C251.711 213.371 249.919 217.936 246.335 221.52C242.837 225.019 237.674 226.768 230.847 226.768C226.751 226.768 223.125 225.957 219.967 224.336C216.895 222.715 214.463 220.411 212.671 217.424C210.879 214.437 209.983 210.981 209.983 207.056C209.983 202.192 211.306 198.181 213.951 195.024C216.597 191.781 220.223 189.392 224.831 187.856C229.525 186.32 234.858 185.552 240.831 185.552Z" fill="#FFFFEF"/>
<path d="M278.559 413.959L395.204 321.448C406.57 312.434 411.308 297.41 407.169 283.506L360.537 126.838C356.056 111.786 342.217 101.466 326.512 101.466H186.488C170.783 101.466 156.944 111.786 152.463 126.838L105.831 283.506C101.692 297.41 106.43 312.434 117.796 321.448L234.441 413.959C247.362 424.206 265.638 424.206 278.559 413.959Z" stroke="#E6FF9E" stroke-width="51"/>
</svg>
