<svg width="512" height="512" viewBox="0 0 512 512" fill="none" xmlns="http://www.w3.org/2000/svg">
<path d="M430 256C430 385.582 349.591 485 256.5 485C163.409 485 83 385.582 83 256C83 126.418 163.409 27 256.5 27C349.591 27 430 126.418 430 256Z" stroke="url(#paint0_linear_2_11)" stroke-width="24"/>
<path d="M105.559 285L256.5 485.366L407.441 285H105.559Z" stroke="#FC1414" stroke-width="14"/>
<path d="M230.872 394.536C226.349 394.536 222.211 393.427 218.456 391.208C214.701 388.989 211.715 385.533 209.496 380.84C207.363 376.061 206.296 369.917 206.296 362.408C206.296 355.837 207.363 350.12 209.496 345.256C211.629 340.392 214.531 336.339 218.2 333.096C220.931 330.621 224.045 328.573 227.544 326.952C231.043 325.331 235.181 324.136 239.96 323.368C244.739 322.515 250.328 322.088 256.728 322.088H264.024V331.304H255.192C249.731 331.304 245.165 331.645 241.496 332.328C237.827 332.925 234.797 333.779 232.408 334.888C230.104 335.997 228.099 337.32 226.392 338.856C223.149 341.757 220.675 345.256 218.968 349.352C217.261 353.448 216.408 358.099 216.408 363.304C216.408 368.765 217.048 373.16 218.328 376.488C219.693 379.816 221.485 382.205 223.704 383.656C226.008 385.107 228.568 385.832 231.384 385.832C233.688 385.832 235.651 385.363 237.272 384.424C238.979 383.4 240.259 381.949 241.112 380.072C242.051 378.195 242.52 375.891 242.52 373.16C242.52 368.893 241.411 365.651 239.192 363.432C236.973 361.128 234.115 359.976 230.616 359.976C227.203 359.976 224.003 360.872 221.016 362.664C218.029 364.456 215.299 366.717 212.824 369.448L210.904 361.256C213.464 358.269 216.621 355.837 220.376 353.96C224.216 351.997 228.227 351.016 232.408 351.016C238.552 351.016 243.501 352.893 247.256 356.648C251.096 360.403 253.016 365.48 253.016 371.88C253.016 376.573 252.12 380.627 250.328 384.04C248.536 387.453 245.976 390.056 242.648 391.848C239.405 393.64 235.48 394.536 230.872 394.536ZM266.584 393V331.304H261.976L262.232 322.088H299.352V331.304H277.592V393H266.584Z" fill="#FFF500"/>
<defs>
<linearGradient id="paint0_linear_2_11" x1="256.5" y1="15" x2="256.5" y2="497" gradientUnits="userSpaceOnUse">
<stop stop-color="#F1280C"/>
<stop offset="1" stop-color="#010100" stop-opacity="0"/>
</linearGradient>
</defs>
</svg>
