<svg width="512" height="512" viewBox="0 0 512 512" fill="none" xmlns="http://www.w3.org/2000/svg">
<path d="M430 256C430 385.582 349.591 485 256.5 485C163.409 485 83 385.582 83 256C83 126.418 163.409 27 256.5 27C349.591 27 430 126.418 430 256Z" stroke="url(#paint0_linear_2_39)" stroke-width="24"/>
<path d="M290.486 272.808C286.902 272.808 283.574 272.211 280.502 271.016C277.515 269.821 275.126 267.901 273.334 265.256C271.542 262.611 270.646 259.197 270.646 255.016C270.646 253.053 270.902 250.877 271.414 248.488C272.011 246.099 272.992 244.179 274.358 242.728L275.894 243.24C271.371 245.715 268 248.701 265.782 252.2C263.563 255.699 262.454 259.581 262.454 263.848C262.454 266.92 262.88 269.651 263.734 272.04C264.587 274.344 265.824 276.349 267.446 278.056C269.152 279.848 271.158 281.299 273.462 282.408C275.851 283.603 278.71 284.456 282.038 284.968C285.451 285.48 289.547 285.736 294.326 285.736H304.566V294.824H293.558C289.12 294.824 285.622 294.653 283.062 294.312C280.502 293.971 278.283 293.544 276.406 293.032C270.347 291.325 265.526 289.021 261.942 286.12C258.443 283.304 255.926 280.061 254.39 276.392C252.854 272.723 252.086 268.883 252.086 264.872C252.086 260.691 252.896 256.765 254.518 253.096C256.224 249.427 258.613 246.056 261.686 242.984C264.843 239.912 268.512 237.309 272.694 235.176L283.062 240.168C282.038 242.301 281.227 244.349 280.63 246.312C280.118 248.189 279.862 250.323 279.862 252.712C279.862 255.699 280.544 258.301 281.91 260.52C283.36 262.653 286.176 263.72 290.358 263.72C292.747 263.72 294.71 263.123 296.246 261.928C297.782 260.648 298.934 258.941 299.702 256.808C300.555 254.675 300.982 252.285 300.982 249.64C300.982 243.069 299.147 237.437 295.478 232.744C291.808 228.051 286.646 224.467 279.99 221.992C273.419 219.517 265.696 218.28 256.822 218.28C248.971 218.28 241.974 219.005 235.83 220.456C229.686 221.821 224.523 223.869 220.342 226.6C216.246 229.331 213.174 232.659 211.126 236.584L209.718 241.96C209.632 242.813 209.504 243.624 209.333 244.392C209.248 245.16 209.206 245.928 209.206 246.696C209.206 250.536 209.803 253.779 210.998 256.424C212.192 258.984 213.814 260.904 215.862 262.184C217.995 263.464 220.384 264.104 223.03 264.104C226.016 264.104 228.406 263.123 230.198 261.16C231.99 259.197 232.886 256.381 232.886 252.712C232.886 248.957 231.862 246.099 229.814 244.136C227.851 242.088 225.206 241.064 221.878 241.064C219.488 241.064 217.142 241.661 214.838 242.856C212.534 243.965 210.4 245.501 208.438 247.464L210.742 236.456C212.704 235.005 214.88 233.939 217.27 233.256C219.744 232.488 222.134 232.104 224.438 232.104C228.192 232.104 231.478 232.872 234.294 234.408C237.195 235.944 239.414 238.163 240.95 241.064C242.571 243.965 243.382 247.507 243.382 251.688C243.382 256.04 242.528 259.795 240.822 262.952C239.2 266.109 236.811 268.541 233.654 270.248C230.582 271.955 226.827 272.808 222.39 272.808C218.379 272.808 214.582 271.827 210.998 269.864C207.414 267.816 204.512 264.872 202.294 261.032C200.16 257.107 199.094 252.285 199.094 246.568C199.094 240.936 200.331 235.901 202.806 231.464C205.366 227.027 208.651 223.272 212.662 220.2C216.502 217.299 220.64 214.995 225.078 213.288C229.6 211.581 234.464 210.387 239.67 209.704C244.96 208.936 250.635 208.552 256.694 208.552C267.531 208.552 276.79 210.045 284.47 213.032C292.235 215.933 298.507 220.029 303.286 225.32C306.272 228.477 308.448 232.104 309.814 236.2C311.179 240.211 311.862 244.221 311.862 248.232C311.862 251.048 311.52 253.907 310.838 256.808C310.24 259.709 309.131 262.397 307.51 264.872C305.888 267.261 303.712 269.181 300.982 270.632C298.251 272.083 294.752 272.808 290.486 272.808ZM244.79 322.088C240.182 322.088 235.915 321.277 231.99 319.656C228.064 318.12 224.907 315.688 222.518 312.36C220.214 309.032 219.062 304.765 219.062 299.56C219.062 296.147 219.659 292.605 220.854 288.936C222.134 285.267 224.096 281.811 226.742 278.568L236.214 283.176C234.08 286.333 232.544 289.149 231.606 291.624C230.667 294.099 230.198 296.701 230.198 299.432C230.198 302.931 230.923 305.661 232.374 307.624C233.91 309.587 235.83 310.909 238.134 311.592C240.523 312.36 243.04 312.744 245.686 312.744C249.526 312.744 252.768 312.061 255.414 310.696C258.144 309.416 260.534 307.581 262.582 305.192C264.63 302.888 266.55 300.285 268.342 297.384C269.11 295.933 270.091 294.355 271.286 292.648C272.48 291.027 273.376 289.875 273.974 289.192L283.702 293.16C282.848 294.013 281.952 295.165 281.014 296.616C280.075 298.152 279.307 299.475 278.71 300.584C276.406 305.107 273.718 308.989 270.646 312.232C267.659 315.475 264.075 317.907 259.894 319.528C255.712 321.235 250.678 322.088 244.79 322.088Z" fill="#FEFEFE"/>
<path d="M314.286 328.331L344.312 265.26C364.53 222.789 333.563 173.75 286.526 173.75H226.474C179.437 173.75 148.47 222.789 168.688 265.26L198.714 328.331C221.876 376.985 291.124 376.985 314.286 328.331Z" stroke="#0E4374" stroke-width="14"/>
<defs>
<linearGradient id="paint0_linear_2_39" x1="256.5" y1="15" x2="256.5" y2="497" gradientUnits="userSpaceOnUse">
<stop stop-color="#B6A6F9"/>
<stop offset="1" stop-color="#070C38"/>
</linearGradient>
</defs>
</svg>
