<svg width="512" height="512" viewBox="0 0 512 512" fill="none" xmlns="http://www.w3.org/2000/svg">
<g id="Group 2">
<g id="Ellipse 1">
<g filter="url(#filter0_i_3_81)">
<circle cx="256" cy="256" r="256" fill="#080A31"/>
</g>
<circle cx="256" cy="256" r="250" stroke="url(#paint0_linear_3_81)" stroke-width="12"/>
</g>
<path id="Polygon 2" d="M246.414 27.25L257.5 4.55635L268.586 27.25H246.414Z" fill="#ACCAF8" stroke="#FFF500" stroke-width="4"/>
<g id="Ellipse 2">
<mask id="path-4-inside-1_3_81" fill="white">
<path d="M210 84C210 76.7773 211.216 69.6253 213.578 62.9524C215.94 56.2795 219.402 50.2164 223.766 45.1091C228.13 40.0019 233.312 35.9506 239.014 33.1866C244.716 30.4226 250.828 29 257 29C263.172 29 269.284 30.4226 274.986 33.1866C280.688 35.9506 285.87 40.0019 290.234 45.1091C294.598 50.2163 298.06 56.2795 300.422 62.9524C302.784 69.6253 304 76.7773 304 84H283.433C283.433 79.938 282.749 75.9157 281.421 72.1629C280.092 68.4101 278.145 65.0002 275.691 62.1279C273.236 59.2556 270.322 56.9772 267.115 55.4228C263.908 53.8683 260.471 53.0682 257 53.0682C253.529 53.0682 250.092 53.8683 246.885 55.4228C243.678 56.9772 240.764 59.2557 238.309 62.1279C235.855 65.0002 233.908 68.4101 232.579 72.1629C231.251 75.9157 230.567 79.938 230.567 84L210 84Z"/>
</mask>
<path d="M210 84C210 76.7773 211.216 69.6253 213.578 62.9524C215.94 56.2795 219.402 50.2164 223.766 45.1091C228.13 40.0019 233.312 35.9506 239.014 33.1866C244.716 30.4226 250.828 29 257 29C263.172 29 269.284 30.4226 274.986 33.1866C280.688 35.9506 285.87 40.0019 290.234 45.1091C294.598 50.2163 298.06 56.2795 300.422 62.9524C302.784 69.6253 304 76.7773 304 84H283.433C283.433 79.938 282.749 75.9157 281.421 72.1629C280.092 68.4101 278.145 65.0002 275.691 62.1279C273.236 59.2556 270.322 56.9772 267.115 55.4228C263.908 53.8683 260.471 53.0682 257 53.0682C253.529 53.0682 250.092 53.8683 246.885 55.4228C243.678 56.9772 240.764 59.2557 238.309 62.1279C235.855 65.0002 233.908 68.4101 232.579 72.1629C231.251 75.9157 230.567 79.938 230.567 84L210 84Z" stroke="#C65555" stroke-width="14" mask="url(#path-4-inside-1_3_81)"/>
</g>
<g id="Ellipse 4">
<mask id="path-5-inside-2_3_81" fill="white">
<path d="M195 130.5C195 120.454 196.604 110.506 199.719 101.225C202.835 91.9433 207.402 83.51 213.159 76.4063C218.917 69.3027 225.751 63.6677 233.274 59.8232C240.796 55.9787 248.858 54 257 54C265.142 54 273.204 55.9787 280.726 59.8232C288.249 63.6677 295.083 69.3026 300.841 76.4063C306.598 83.51 311.165 91.9433 314.281 101.225C317.396 110.506 319 120.454 319 130.5H291.869C291.869 124.85 290.967 119.256 289.214 114.036C287.462 108.816 284.894 104.073 281.656 100.078C278.418 96.0829 274.574 92.9138 270.344 90.7517C266.113 88.5895 261.579 87.4767 257 87.4767C252.421 87.4767 247.887 88.5895 243.656 90.7517C239.426 92.9138 235.582 96.0829 232.344 100.078C229.106 104.073 226.538 108.816 224.786 114.036C223.033 119.256 222.131 124.85 222.131 130.5L195 130.5Z"/>
</mask>
<path d="M195 130.5C195 120.454 196.604 110.506 199.719 101.225C202.835 91.9433 207.402 83.51 213.159 76.4063C218.917 69.3027 225.751 63.6677 233.274 59.8232C240.796 55.9787 248.858 54 257 54C265.142 54 273.204 55.9787 280.726 59.8232C288.249 63.6677 295.083 69.3026 300.841 76.4063C306.598 83.51 311.165 91.9433 314.281 101.225C317.396 110.506 319 120.454 319 130.5H291.869C291.869 124.85 290.967 119.256 289.214 114.036C287.462 108.816 284.894 104.073 281.656 100.078C278.418 96.0829 274.574 92.9138 270.344 90.7517C266.113 88.5895 261.579 87.4767 257 87.4767C252.421 87.4767 247.887 88.5895 243.656 90.7517C239.426 92.9138 235.582 96.0829 232.344 100.078C229.106 104.073 226.538 108.816 224.786 114.036C223.033 119.256 222.131 124.85 222.131 130.5L195 130.5Z" stroke="#C65555" stroke-width="14" mask="url(#path-5-inside-2_3_81)"/>
</g>
<g id="Ellipse 7">
<mask id="path-6-inside-3_3_81" fill="white">
<path d="M204.2 250.924C200.509 254.97 194.643 256.33 189.748 253.875C172.789 245.371 159.633 233.812 151.857 220.468C142.854 205.019 141.55 188.016 148.141 172.024C154.732 156.033 168.861 141.919 188.395 131.814C207.93 121.708 231.811 116.159 256.435 116.003C281.059 115.848 305.09 121.094 324.902 130.95C344.715 140.807 359.234 154.739 366.269 170.645C373.305 186.55 372.474 203.567 363.903 219.126C356.499 232.567 343.667 244.291 326.946 253.009C322.115 255.528 316.26 254.279 312.505 250.331L297.856 234.93C291.624 228.378 294.129 217.633 300.372 211.093C302.352 209.02 304.005 206.798 305.293 204.46C309.143 197.471 309.516 189.828 306.356 182.683C303.196 175.539 296.674 169.281 287.775 164.854C278.876 160.426 268.082 158.07 257.022 158.14C245.961 158.21 235.235 160.703 226.46 165.242C217.686 169.781 211.34 176.12 208.379 183.303C205.419 190.486 206.005 198.123 210.048 205.062C211.439 207.449 213.213 209.708 215.325 211.804C221.72 218.151 224.388 228.795 218.316 235.451L204.2 250.924Z"/>
</mask>
<path d="M204.2 250.924C200.509 254.97 194.643 256.33 189.748 253.875C172.789 245.371 159.633 233.812 151.857 220.468C142.854 205.019 141.55 188.016 148.141 172.024C154.732 156.033 168.861 141.919 188.395 131.814C207.93 121.708 231.811 116.159 256.435 116.003C281.059 115.848 305.09 121.094 324.902 130.95C344.715 140.807 359.234 154.739 366.269 170.645C373.305 186.55 372.474 203.567 363.903 219.126C356.499 232.567 343.667 244.291 326.946 253.009C322.115 255.528 316.26 254.279 312.505 250.331L297.856 234.93C291.624 228.378 294.129 217.633 300.372 211.093C302.352 209.02 304.005 206.798 305.293 204.46C309.143 197.471 309.516 189.828 306.356 182.683C303.196 175.539 296.674 169.281 287.775 164.854C278.876 160.426 268.082 158.07 257.022 158.14C245.961 158.21 235.235 160.703 226.46 165.242C217.686 169.781 211.34 176.12 208.379 183.303C205.419 190.486 206.005 198.123 210.048 205.062C211.439 207.449 213.213 209.708 215.325 211.804C221.72 218.151 224.388 228.795 218.316 235.451L204.2 250.924Z" stroke="#C65555" stroke-width="14" mask="url(#path-6-inside-3_3_81)"/>
</g>
<g id="Ellipse 9">
<mask id="path-7-inside-4_3_81" fill="white">
<path d="M219.107 313.325C216.746 309.513 217.161 304.533 220.529 301.573C231.676 291.774 244.858 286.656 258.336 287.018C271.849 287.381 284.896 293.231 295.751 303.67C298.974 306.769 299.195 311.743 296.7 315.454L284.798 333.156C281.095 338.664 273.084 338.846 267.054 336.073C264.041 334.687 260.86 333.922 257.621 333.835C254.414 333.749 251.243 334.33 248.216 335.53C242.059 337.969 234.073 337.486 230.585 331.856L219.107 313.325Z"/>
</mask>
<path d="M219.107 313.325C216.746 309.513 217.161 304.533 220.529 301.573C231.676 291.774 244.858 286.656 258.336 287.018C271.849 287.381 284.896 293.231 295.751 303.67C298.974 306.769 299.195 311.743 296.7 315.454L284.798 333.156C281.095 338.664 273.084 338.846 267.054 336.073C264.041 334.687 260.86 333.922 257.621 333.835C254.414 333.749 251.243 334.33 248.216 335.53C242.059 337.969 234.073 337.486 230.585 331.856L219.107 313.325Z" stroke="#C65555" stroke-width="14" mask="url(#path-7-inside-4_3_81)"/>
</g>
<g id="Ellipse 13">
<mask id="path-8-inside-5_3_81" fill="white">
<path d="M204.579 244.968C200.191 246.723 197.589 251.323 198.684 255.92C202.701 272.789 209.833 287.624 219.282 298.604C230.188 311.278 243.561 318.1 257.302 317.999C271.043 317.897 284.372 310.878 295.196 298.043C304.566 286.933 311.598 272.01 315.508 255.101C316.579 250.47 313.914 245.867 309.477 244.162L308.159 243.656C302.254 241.387 295.793 245.135 293.862 251.159C291.151 259.617 287.192 267.084 282.249 272.945C275.094 281.429 266.283 286.07 257.2 286.137C248.117 286.204 239.276 281.694 232.067 273.316C227.107 267.552 223.113 260.182 220.349 251.808C218.357 245.774 211.82 242.071 205.92 244.431L204.579 244.968Z"/>
</mask>
<path d="M204.579 244.968C200.191 246.723 197.589 251.323 198.684 255.92C202.701 272.789 209.833 287.624 219.282 298.604C230.188 311.278 243.561 318.1 257.302 317.999C271.043 317.897 284.372 310.878 295.196 298.043C304.566 286.933 311.598 272.01 315.508 255.101C316.579 250.47 313.914 245.867 309.477 244.162L308.159 243.656C302.254 241.387 295.793 245.135 293.862 251.159C291.151 259.617 287.192 267.084 282.249 272.945C275.094 281.429 266.283 286.07 257.2 286.137C248.117 286.204 239.276 281.694 232.067 273.316C227.107 267.552 223.113 260.182 220.349 251.808C218.357 245.774 211.82 242.071 205.92 244.431L204.579 244.968Z" stroke="#C65555" stroke-width="14" mask="url(#path-8-inside-5_3_81)"/>
</g>
<g id="Ellipse 11">
<mask id="path-9-inside-6_3_81" fill="white">
<path d="M218.287 503.592C229.825 507.189 243.131 509.063 256.676 508.998C270.22 508.934 283.455 506.934 294.858 503.228L270.922 484.3C266.543 485.723 261.461 486.491 256.26 486.516C251.058 486.541 245.949 485.821 241.518 484.44L218.287 503.592Z"/>
</mask>
<path d="M218.287 503.592C229.825 507.189 243.131 509.063 256.676 508.998C270.22 508.934 283.455 506.934 294.858 503.228L270.922 484.3C266.543 485.723 261.461 486.491 256.26 486.516C251.058 486.541 245.949 485.821 241.518 484.44L218.287 503.592Z" stroke="#857CF2" stroke-width="14" mask="url(#path-9-inside-6_3_81)"/>
</g>
<g id="Ellipse 12">
<mask id="path-10-inside-7_3_81" fill="white">
<path d="M237.905 500.815C243.594 504.263 250.155 506.06 256.833 505.998C263.511 505.937 270.037 504.019 275.659 500.465L263.857 482.315C261.698 483.68 259.192 484.416 256.628 484.44C254.063 484.464 251.544 483.774 249.359 482.449L237.905 500.815Z"/>
</mask>
<path d="M237.905 500.815C243.594 504.263 250.155 506.06 256.833 505.998C263.511 505.937 270.037 504.019 275.659 500.465L263.857 482.315C261.698 483.68 259.192 484.416 256.628 484.44C254.063 484.464 251.544 483.774 249.359 482.449L237.905 500.815Z" stroke="#8F8BB7" stroke-width="14" mask="url(#path-10-inside-7_3_81)"/>
</g>
<path id="Ellipse 3" d="M314.565 72.1844C321.949 72.8557 327.826 73.646 331.823 74.5C327.826 75.354 321.949 76.1443 314.565 76.8156C299.751 78.1623 279.221 79 256.5 79C233.779 79 213.249 78.1623 198.435 76.8156C191.051 76.1443 185.174 75.354 181.177 74.5C185.174 73.646 191.051 72.8557 198.435 72.1844C213.249 70.8377 233.779 70 256.5 70C279.221 70 299.751 70.8377 314.565 72.1844Z" stroke="#F4ADAD" stroke-width="6"/>
<path id="Ellipse 10" d="M305.539 44.1528C305.542 44.1531 305.524 44.1701 305.478 44.2033C305.513 44.1692 305.537 44.1526 305.539 44.1528ZM292.826 43.8793C296.605 44.3657 299.679 44.9185 301.94 45.5C299.679 46.0815 296.605 46.6343 292.826 47.1207C283.85 48.2761 271.359 49 257.5 49C243.641 49 231.15 48.2761 222.174 47.1207C218.395 46.6343 215.321 46.0815 213.06 45.5C215.321 44.9185 218.395 44.3657 222.174 43.8793C231.15 42.7239 243.641 42 257.5 42C271.359 42 283.85 42.7239 292.826 43.8793ZM209.461 44.1528C209.463 44.1526 209.487 44.1692 209.522 44.2033C209.476 44.1701 209.458 44.1531 209.461 44.1528ZM209.461 46.8472C209.458 46.8469 209.476 46.8299 209.522 46.7967C209.487 46.8308 209.463 46.8474 209.461 46.8472ZM305.478 46.7967C305.524 46.8299 305.542 46.8469 305.539 46.8472C305.537 46.8474 305.513 46.8308 305.478 46.7967Z" stroke="#BDFB0E" stroke-width="6"/>
<g id="Ellipse 5">
<path d="M354.896 107.433C354.896 107.433 354.893 107.436 354.888 107.44C354.893 107.436 354.896 107.433 354.896 107.433ZM348.575 107.643C350.025 107.932 351.237 108.22 352.218 108.5C351.237 108.78 350.025 109.068 348.575 109.357C343.602 110.346 336.315 111.253 327.208 112.019C309.02 113.55 283.843 114.5 256 114.5C228.157 114.5 202.98 113.55 184.792 112.019C175.685 111.253 168.398 110.346 163.425 109.357C161.975 109.068 160.763 108.78 159.782 108.5C160.763 108.22 161.975 107.932 163.425 107.643C168.398 106.654 175.685 105.747 184.792 104.981C202.98 103.45 228.157 102.5 256 102.5C283.843 102.5 309.02 103.45 327.208 104.981C336.315 105.747 343.602 106.654 348.575 107.643ZM157.104 107.433C157.104 107.433 157.107 107.436 157.112 107.44C157.107 107.436 157.104 107.433 157.104 107.433ZM157.104 109.567C157.104 109.567 157.107 109.564 157.112 109.56C157.107 109.564 157.104 109.567 157.104 109.567ZM354.888 109.56C354.893 109.564 354.896 109.567 354.896 109.567C354.896 109.567 354.893 109.564 354.888 109.56Z" stroke="#CC2E2E" stroke-width="5"/>
<path d="M354.896 107.433C354.896 107.433 354.893 107.436 354.888 107.44C354.893 107.436 354.896 107.433 354.896 107.433ZM348.575 107.643C350.025 107.932 351.237 108.22 352.218 108.5C351.237 108.78 350.025 109.068 348.575 109.357C343.602 110.346 336.315 111.253 327.208 112.019C309.02 113.55 283.843 114.5 256 114.5C228.157 114.5 202.98 113.55 184.792 112.019C175.685 111.253 168.398 110.346 163.425 109.357C161.975 109.068 160.763 108.78 159.782 108.5C160.763 108.22 161.975 107.932 163.425 107.643C168.398 106.654 175.685 105.747 184.792 104.981C202.98 103.45 228.157 102.5 256 102.5C283.843 102.5 309.02 103.45 327.208 104.981C336.315 105.747 343.602 106.654 348.575 107.643ZM157.104 107.433C157.104 107.433 157.107 107.436 157.112 107.44C157.107 107.436 157.104 107.433 157.104 107.433ZM157.104 109.567C157.104 109.567 157.107 109.564 157.112 109.56C157.107 109.564 157.104 109.567 157.104 109.567ZM354.888 109.56C354.893 109.564 354.896 109.567 354.896 109.567C354.896 109.567 354.893 109.564 354.888 109.56Z" stroke="#F79797" stroke-width="5"/>
</g>
<g id="Ellipse 8">
<path d="M148.009 184C153.542 183.621 160.326 183.272 168.15 182.963C190.999 182.059 222.59 181.5 257.5 181.5C292.41 181.5 324.001 182.059 346.85 182.963C354.674 183.272 361.458 183.621 366.991 184C361.458 184.379 354.674 184.728 346.85 185.037C324.001 185.941 292.41 186.5 257.5 186.5C222.59 186.5 190.999 185.941 168.15 185.037C160.326 184.728 153.542 184.379 148.009 184Z" stroke="#CC2E2E" stroke-width="5"/>
<path d="M148.009 184C153.542 183.621 160.326 183.272 168.15 182.963C190.999 182.059 222.59 181.5 257.5 181.5C292.41 181.5 324.001 182.059 346.85 182.963C354.674 183.272 361.458 183.621 366.991 184C361.458 184.379 354.674 184.728 346.85 185.037C324.001 185.941 292.41 186.5 257.5 186.5C222.59 186.5 190.999 185.941 168.15 185.037C160.326 184.728 153.542 184.379 148.009 184Z" stroke="#E1B7B7" stroke-width="5"/>
</g>
<path id="Ellipse 6" d="M288.5 135.5C288.5 158.34 273.725 175.5 257 175.5C240.275 175.5 225.5 158.34 225.5 135.5C225.5 112.66 240.275 95.5 257 95.5C273.725 95.5 288.5 112.66 288.5 135.5Z" stroke="#FA0707" stroke-width="7"/>
<g id="Group 1">
<path id="&#224;&#174;&#144;" d="M244.416 388.544C240.49 388.544 237.226 387.883 234.624 386.56C232.021 385.237 230.058 383.467 228.736 381.248C227.456 379.072 226.816 376.683 226.816 374.08C226.816 371.733 227.2 369.707 227.968 368C228.778 366.336 229.845 364.949 231.168 363.84C232.661 362.603 234.41 361.664 236.416 361.024C238.421 360.384 240.618 359.957 243.008 359.744C245.397 359.488 247.872 359.36 250.432 359.36H256.128C259.37 359.36 262.229 359.253 264.704 359.04C267.178 358.784 269.312 358.379 271.104 357.824C272.896 357.269 274.346 356.48 275.456 355.456C276.522 354.475 277.29 353.259 277.76 351.808C278.272 350.357 278.528 348.629 278.528 346.624C278.528 344.363 278.122 342.485 277.312 340.992C276.501 339.499 275.392 338.368 273.984 337.6C272.576 336.832 270.997 336.448 269.248 336.448C268.01 336.448 266.901 336.64 265.92 337.024C264.981 337.365 264.149 337.941 263.424 338.752C262.613 339.733 262.037 340.885 261.696 342.208C261.354 343.488 261.184 345.28 261.184 347.584V354.88H255.616V348.992C255.616 347.072 255.424 345.344 255.04 343.808C254.656 342.229 254.016 340.885 253.12 339.776C252.266 338.624 251.114 337.749 249.664 337.152C248.256 336.555 246.485 336.256 244.352 336.256C243.029 336.256 242.005 336.32 241.28 336.448C240.554 336.533 239.765 336.725 238.912 337.024L236.672 337.92C235.52 338.517 234.581 339.243 233.856 340.096C233.173 340.907 232.661 341.803 232.32 342.784C232.021 343.723 231.872 344.704 231.872 345.728C231.872 347.563 232.32 349.056 233.216 350.208C234.154 351.317 235.669 351.872 237.76 351.872C239.424 351.872 240.768 351.403 241.792 350.464C242.858 349.525 243.392 348.224 243.392 346.56C243.392 345.067 242.986 343.787 242.176 342.72C241.408 341.611 240.32 340.779 238.912 340.224C237.546 339.627 235.968 339.328 234.176 339.328L238.272 336.384C240.234 336.555 241.984 337.067 243.52 337.92C245.098 338.731 246.336 339.84 247.232 341.248C248.17 342.613 248.64 344.235 248.64 346.112C248.64 349.184 247.637 351.637 245.632 353.472C243.669 355.307 241.066 356.224 237.824 356.224C235.434 356.224 233.408 355.776 231.744 354.88C230.122 353.941 228.885 352.704 228.032 351.168C227.221 349.589 226.816 347.84 226.816 345.92C226.816 342.933 227.605 340.395 229.184 338.304C230.762 336.171 232.853 334.549 235.456 333.44C238.101 332.331 240.938 331.776 243.968 331.776C247.082 331.776 249.6 332.181 251.52 332.992C253.482 333.803 254.997 334.827 256.064 336.064C257.173 337.301 258.005 338.581 258.56 339.904L257.408 340.48C258.048 338.645 258.901 337.088 259.968 335.808C261.077 334.485 262.421 333.483 264 332.8C265.578 332.117 267.392 331.776 269.44 331.776C272.64 331.776 275.328 332.416 277.504 333.696C279.68 334.933 281.322 336.661 282.432 338.88C283.584 341.099 284.16 343.659 284.16 346.56C284.16 349.419 283.733 351.851 282.88 353.856C282.026 355.861 280.832 357.525 279.296 358.848C277.674 360.256 275.712 361.323 273.408 362.048C271.146 362.773 268.65 363.285 265.92 363.584C263.232 363.84 260.416 363.968 257.472 363.968H251.456C248.64 363.968 246.144 364.053 243.968 364.224C241.834 364.395 240 364.736 238.464 365.248C236.97 365.76 235.733 366.507 234.752 367.488C233.941 368.299 233.344 369.237 232.96 370.304C232.618 371.371 232.448 372.587 232.448 373.952C232.448 376.256 232.981 378.133 234.048 379.584C235.157 381.035 236.629 382.101 238.464 382.784C240.298 383.509 242.325 383.872 244.544 383.872C246.336 383.872 247.893 383.68 249.216 383.296C250.581 382.955 251.733 382.379 252.672 381.568C253.781 380.587 254.549 379.435 254.976 378.112C255.402 376.789 255.616 374.976 255.616 372.672V368.704H261.184V371.008C261.184 372.715 261.29 374.272 261.504 375.68C261.717 377.088 262.08 378.325 262.592 379.392C263.317 380.843 264.32 381.952 265.6 382.72C266.922 383.488 268.629 383.872 270.72 383.872C272.085 383.872 273.365 383.573 274.56 382.976C275.754 382.421 276.714 381.483 277.44 380.16C278.208 378.837 278.592 377.024 278.592 374.72C278.592 373.525 278.442 372.181 278.144 370.688C277.845 369.195 277.461 367.957 276.992 366.976L282.432 365.12C282.986 366.571 283.413 368.043 283.712 369.536C284.01 371.029 284.16 372.821 284.16 374.912C284.16 377.856 283.562 380.331 282.368 382.336C281.216 384.384 279.616 385.92 277.568 386.944C275.562 388.011 273.301 388.544 270.784 388.544C268.01 388.544 265.749 388.117 264 387.264C262.293 386.411 260.949 385.344 259.968 384.064C259.029 382.784 258.325 381.504 257.856 380.224L259.008 379.968C258.325 381.803 257.301 383.36 255.936 384.64C254.57 385.92 252.906 386.88 250.944 387.52C249.024 388.203 246.848 388.544 244.416 388.544Z" fill="#FF0000"/>
<path id="&#224;&#174;&#146;" d="M266.933 403.44C265.813 403.44 264.773 403.253 263.813 402.88C262.88 402.507 262.133 401.907 261.573 401.08C261.013 400.253 260.733 399.187 260.733 397.88C260.733 397.267 260.813 396.587 260.973 395.84C261.16 395.093 261.466 394.493 261.893 394.04L262.373 394.2C260.96 394.973 259.906 395.907 259.213 397C258.52 398.093 258.173 399.307 258.173 400.64C258.173 401.6 258.306 402.453 258.573 403.2C258.84 403.92 259.226 404.547 259.733 405.08C260.266 405.64 260.893 406.093 261.613 406.44C262.36 406.813 263.253 407.08 264.293 407.24C265.36 407.4 266.64 407.48 268.133 407.48H271.333V410.32H267.893C266.506 410.32 265.413 410.267 264.613 410.16C263.813 410.053 263.12 409.92 262.533 409.76C260.64 409.227 259.133 408.507 258.013 407.6C256.92 406.72 256.133 405.707 255.653 404.56C255.173 403.413 254.933 402.213 254.933 400.96C254.933 399.653 255.186 398.427 255.693 397.28C256.226 396.133 256.973 395.08 257.933 394.12C258.92 393.16 260.066 392.347 261.373 391.68L264.613 393.24C264.293 393.907 264.04 394.547 263.853 395.16C263.693 395.747 263.613 396.413 263.613 397.16C263.613 398.093 263.826 398.907 264.253 399.6C264.706 400.267 265.586 400.6 266.893 400.6C267.64 400.6 268.253 400.413 268.733 400.04C269.213 399.64 269.573 399.107 269.813 398.44C270.08 397.773 270.213 397.027 270.213 396.2C270.213 394.147 269.64 392.387 268.493 390.92C267.346 389.453 265.733 388.333 263.653 387.56C261.6 386.787 259.186 386.4 256.413 386.4C253.96 386.4 251.773 386.627 249.853 387.08C247.933 387.507 246.32 388.147 245.013 389C243.733 389.853 242.773 390.893 242.133 392.12L241.693 393.8C241.666 394.067 241.626 394.32 241.573 394.56C241.546 394.8 241.533 395.04 241.533 395.28C241.533 396.48 241.72 397.493 242.093 398.32C242.466 399.12 242.973 399.72 243.613 400.12C244.28 400.52 245.026 400.72 245.853 400.72C246.786 400.72 247.533 400.413 248.093 399.8C248.653 399.187 248.933 398.307 248.933 397.16C248.933 395.987 248.613 395.093 247.973 394.48C247.36 393.84 246.533 393.52 245.493 393.52C244.746 393.52 244.013 393.707 243.293 394.08C242.573 394.427 241.906 394.907 241.293 395.52L242.013 392.08C242.626 391.627 243.306 391.293 244.053 391.08C244.826 390.84 245.573 390.72 246.293 390.72C247.466 390.72 248.493 390.96 249.373 391.44C250.28 391.92 250.973 392.613 251.453 393.52C251.96 394.427 252.213 395.533 252.213 396.84C252.213 398.2 251.946 399.373 251.413 400.36C250.906 401.347 250.16 402.107 249.173 402.64C248.213 403.173 247.04 403.44 245.653 403.44C244.4 403.44 243.213 403.133 242.093 402.52C240.973 401.88 240.066 400.96 239.373 399.76C238.706 398.533 238.373 397.027 238.373 395.24C238.373 393.48 238.76 391.907 239.533 390.52C240.333 389.133 241.36 387.96 242.613 387C243.813 386.093 245.106 385.373 246.493 384.84C247.906 384.307 249.426 383.933 251.053 383.72C252.706 383.48 254.48 383.36 256.373 383.36C259.76 383.36 262.653 383.827 265.053 384.76C267.48 385.667 269.44 386.947 270.933 388.6C271.866 389.587 272.546 390.72 272.973 392C273.4 393.253 273.613 394.507 273.613 395.76C273.613 396.64 273.506 397.533 273.293 398.44C273.106 399.347 272.76 400.187 272.253 400.96C271.746 401.707 271.066 402.307 270.213 402.76C269.36 403.213 268.266 403.44 266.933 403.44ZM252.653 418.84C251.213 418.84 249.88 418.587 248.653 418.08C247.426 417.6 246.44 416.84 245.693 415.8C244.973 414.76 244.613 413.427 244.613 411.8C244.613 410.733 244.8 409.627 245.173 408.48C245.573 407.333 246.186 406.253 247.013 405.24L249.973 406.68C249.306 407.667 248.826 408.547 248.533 409.32C248.24 410.093 248.093 410.907 248.093 411.76C248.093 412.853 248.32 413.707 248.773 414.32C249.253 414.933 249.853 415.347 250.573 415.56C251.32 415.8 252.106 415.92 252.933 415.92C254.133 415.92 255.146 415.707 255.973 415.28C256.826 414.88 257.573 414.307 258.213 413.56C258.853 412.84 259.453 412.027 260.013 411.12C260.253 410.667 260.56 410.173 260.933 409.64C261.306 409.133 261.586 408.773 261.773 408.56L264.813 409.8C264.546 410.067 264.266 410.427 263.973 410.88C263.68 411.36 263.44 411.773 263.253 412.12C262.533 413.533 261.693 414.747 260.733 415.76C259.8 416.773 258.68 417.533 257.373 418.04C256.066 418.573 254.493 418.84 252.653 418.84Z" fill="url(#paint1_linear_3_81)"/>
<path id="&#224;&#174;&#147;" d="M265.933 436.44C264.813 436.44 263.773 436.253 262.813 435.88C261.88 435.507 261.133 434.907 260.573 434.08C260.013 433.253 259.733 432.187 259.733 430.88C259.733 430.267 259.813 429.587 259.973 428.84C260.16 428.093 260.466 427.493 260.893 427.04L261.373 427.2C259.96 427.973 258.906 428.907 258.213 430C257.52 431.093 257.173 432.307 257.173 433.64C257.173 434.6 257.306 435.453 257.573 436.2C257.84 436.92 258.226 437.547 258.733 438.08C259.266 438.64 259.893 439.093 260.613 439.44C261.36 439.813 262.253 440.08 263.293 440.24C264.36 440.4 265.64 440.48 267.133 440.48H270.333V443.32H266.893C265.506 443.32 264.413 443.267 263.613 443.16C262.813 443.053 262.12 442.92 261.533 442.76C259.64 442.227 258.133 441.507 257.013 440.6C255.92 439.72 255.133 438.707 254.653 437.56C254.173 436.413 253.933 435.213 253.933 433.96C253.933 432.653 254.186 431.427 254.693 430.28C255.226 429.133 255.973 428.08 256.933 427.12C257.92 426.16 259.066 425.347 260.373 424.68L263.613 426.24C263.293 426.907 263.04 427.547 262.853 428.16C262.693 428.747 262.613 429.413 262.613 430.16C262.613 431.093 262.826 431.907 263.253 432.6C263.706 433.267 264.586 433.6 265.893 433.6C266.64 433.6 267.253 433.413 267.733 433.04C268.213 432.64 268.573 432.107 268.813 431.44C269.08 430.773 269.213 430.027 269.213 429.2C269.213 427.147 268.64 425.387 267.493 423.92C266.346 422.453 264.733 421.333 262.653 420.56C260.6 419.787 258.186 419.4 255.413 419.4C252.96 419.4 250.773 419.627 248.853 420.08C246.933 420.507 245.32 421.147 244.013 422C242.733 422.853 241.773 423.893 241.133 425.12L240.693 426.8C240.666 427.067 240.626 427.32 240.573 427.56C240.546 427.8 240.533 428.04 240.533 428.28C240.533 429.48 240.72 430.493 241.093 431.32C241.466 432.12 241.973 432.72 242.613 433.12C243.28 433.52 244.026 433.72 244.853 433.72C245.786 433.72 246.533 433.413 247.093 432.8C247.653 432.187 247.933 431.307 247.933 430.16C247.933 428.987 247.613 428.093 246.973 427.48C246.36 426.84 245.533 426.52 244.493 426.52C243.746 426.52 243.013 426.707 242.293 427.08C241.573 427.427 240.906 427.907 240.293 428.52L241.013 425.08C241.626 424.627 242.306 424.293 243.053 424.08C243.826 423.84 244.573 423.72 245.293 423.72C246.466 423.72 247.493 423.96 248.373 424.44C249.28 424.92 249.973 425.613 250.453 426.52C250.96 427.427 251.213 428.533 251.213 429.84C251.213 431.2 250.946 432.373 250.413 433.36C249.906 434.347 249.16 435.107 248.173 435.64C247.213 436.173 246.04 436.44 244.653 436.44C243.4 436.44 242.213 436.133 241.093 435.52C239.973 434.88 239.066 433.96 238.373 432.76C237.706 431.533 237.373 430.027 237.373 428.24C237.373 426.48 237.76 424.907 238.533 423.52C239.333 422.133 240.36 420.96 241.613 420C242.813 419.093 244.106 418.373 245.493 417.84C246.906 417.307 248.426 416.933 250.053 416.72C251.706 416.48 253.48 416.36 255.373 416.36C258.76 416.36 261.653 416.827 264.053 417.76C266.48 418.667 268.44 419.947 269.933 421.6C270.866 422.587 271.546 423.72 271.973 425C272.4 426.253 272.613 427.507 272.613 428.76C272.613 429.64 272.506 430.533 272.293 431.44C272.106 432.347 271.76 433.187 271.253 433.96C270.746 434.707 270.066 435.307 269.213 435.76C268.36 436.213 267.266 436.44 265.933 436.44ZM247.973 439.28C249.493 439.28 250.72 439.56 251.653 440.12C252.613 440.68 253.32 441.387 253.773 442.24C254.226 443.12 254.453 444.013 254.453 444.92C254.453 445.773 254.306 446.533 254.013 447.2C253.746 447.893 253.36 448.533 252.853 449.12L249.333 449.28C249.946 448.693 250.4 448.08 250.693 447.44C250.986 446.8 251.133 446.133 251.133 445.44C251.133 444.827 251.026 444.253 250.813 443.72C250.6 443.213 250.253 442.8 249.773 442.48C249.32 442.187 248.68 442.04 247.853 442.04C247.4 442.04 246.933 442.133 246.453 442.32C246 442.507 245.613 442.827 245.293 443.28C244.973 443.76 244.813 444.4 244.813 445.2C244.813 445.973 244.96 446.6 245.253 447.08C245.573 447.587 245.986 447.973 246.493 448.24C247 448.533 247.546 448.733 248.133 448.84C248.746 448.973 249.333 449.04 249.893 449.04L252.653 448.96C253.693 448.8 254.586 448.52 255.333 448.12C256.08 447.747 256.733 447.227 257.293 446.56C257.88 445.893 258.453 445.08 259.013 444.12C259.28 443.667 259.506 443.28 259.693 442.96C259.906 442.667 260.106 442.413 260.293 442.2L263.533 443.12C263.266 443.387 263.04 443.693 262.853 444.04C262.666 444.387 262.466 444.747 262.253 445.12C261.533 446.533 260.693 447.747 259.733 448.76C258.8 449.773 257.68 450.533 256.373 451.04C255.066 451.573 253.493 451.84 251.653 451.84H250.813C249.4 451.84 248.093 451.68 246.893 451.36C245.693 451.04 244.666 450.547 243.813 449.88C243.12 449.32 242.573 448.64 242.173 447.84C241.773 447.067 241.573 446.147 241.573 445.08C241.573 443.907 241.84 442.88 242.373 442C242.933 441.147 243.693 440.48 244.653 440C245.64 439.52 246.746 439.28 247.973 439.28Z" fill="url(#paint2_linear_3_81)"/>
<path id="&#224;&#174;&#148;" d="M247.124 474.44C246.004 474.44 244.964 474.253 244.004 473.88C243.071 473.507 242.324 472.907 241.764 472.08C241.204 471.253 240.924 470.187 240.924 468.88C240.924 468.267 241.004 467.587 241.164 466.84C241.351 466.093 241.658 465.493 242.084 465.04L242.564 465.2C241.151 465.973 240.098 466.907 239.404 468C238.711 469.093 238.364 470.307 238.364 471.64C238.364 472.6 238.498 473.453 238.764 474.2C239.031 474.92 239.418 475.547 239.924 476.08C240.458 476.64 241.084 477.093 241.804 477.44C242.551 477.813 243.444 478.08 244.484 478.24C245.551 478.4 246.831 478.48 248.324 478.48H251.524V481.32H248.084C246.698 481.32 245.604 481.267 244.804 481.16C244.004 481.053 243.311 480.92 242.724 480.76C240.831 480.227 239.324 479.507 238.204 478.6C237.111 477.72 236.324 476.707 235.844 475.56C235.364 474.413 235.124 473.213 235.124 471.96C235.124 470.653 235.378 469.427 235.884 468.28C236.418 467.133 237.164 466.08 238.124 465.12C239.111 464.16 240.258 463.347 241.564 462.68L244.804 464.24C244.484 464.907 244.231 465.547 244.044 466.16C243.884 466.747 243.804 467.413 243.804 468.16C243.804 469.093 244.018 469.907 244.444 470.6C244.898 471.267 245.778 471.6 247.084 471.6C247.831 471.6 248.444 471.413 248.924 471.04C249.404 470.64 249.764 470.107 250.004 469.44C250.271 468.773 250.404 468.027 250.404 467.2C250.404 465.147 249.831 463.387 248.684 461.92C247.538 460.453 245.924 459.333 243.844 458.56C241.791 457.787 239.378 457.4 236.604 457.4C234.151 457.4 231.964 457.627 230.044 458.08C228.124 458.507 226.511 459.147 225.204 460C223.924 460.853 222.964 461.893 222.324 463.12L221.884 464.8C221.858 465.067 221.818 465.32 221.764 465.56C221.738 465.8 221.724 466.04 221.724 466.28C221.724 467.48 221.911 468.493 222.284 469.32C222.658 470.12 223.164 470.72 223.804 471.12C224.471 471.52 225.218 471.72 226.044 471.72C226.978 471.72 227.724 471.413 228.284 470.8C228.844 470.187 229.124 469.307 229.124 468.16C229.124 466.987 228.804 466.093 228.164 465.48C227.551 464.84 226.724 464.52 225.684 464.52C224.938 464.52 224.204 464.707 223.484 465.08C222.764 465.427 222.098 465.907 221.484 466.52L222.204 463.08C222.818 462.627 223.498 462.293 224.244 462.08C225.018 461.84 225.764 461.72 226.484 461.72C227.658 461.72 228.684 461.96 229.564 462.44C230.471 462.92 231.164 463.613 231.644 464.52C232.151 465.427 232.404 466.533 232.404 467.84C232.404 469.2 232.138 470.373 231.604 471.36C231.098 472.347 230.351 473.107 229.364 473.64C228.404 474.173 227.231 474.44 225.844 474.44C224.591 474.44 223.404 474.133 222.284 473.52C221.164 472.88 220.258 471.96 219.564 470.76C218.898 469.533 218.564 468.027 218.564 466.24C218.564 464.48 218.951 462.907 219.724 461.52C220.524 460.133 221.551 458.96 222.804 458C224.004 457.093 225.298 456.373 226.684 455.84C228.098 455.307 229.618 454.933 231.244 454.72C232.898 454.48 234.671 454.36 236.564 454.36C239.951 454.36 242.844 454.827 245.244 455.76C247.671 456.667 249.631 457.947 251.124 459.6C252.058 460.587 252.738 461.72 253.164 463C253.591 464.253 253.804 465.507 253.804 466.76C253.804 467.64 253.698 468.533 253.484 469.44C253.298 470.347 252.951 471.187 252.444 471.96C251.938 472.707 251.258 473.307 250.404 473.76C249.551 474.213 248.458 474.44 247.124 474.44ZM232.844 489.84C231.404 489.84 230.071 489.587 228.844 489.08C227.618 488.6 226.631 487.84 225.884 486.8C225.164 485.76 224.804 484.427 224.804 482.8C224.804 481.733 224.991 480.627 225.364 479.48C225.764 478.333 226.378 477.253 227.204 476.24L230.164 477.68C229.498 478.667 229.018 479.547 228.724 480.32C228.431 481.093 228.284 481.907 228.284 482.76C228.284 483.853 228.511 484.707 228.964 485.32C229.444 485.933 230.044 486.347 230.764 486.56C231.511 486.8 232.298 486.92 233.124 486.92C234.324 486.92 235.338 486.707 236.164 486.28C237.018 485.88 237.764 485.307 238.404 484.56C239.044 483.84 239.644 483.027 240.204 482.12C240.444 481.667 240.751 481.173 241.124 480.64C241.498 480.133 241.778 479.773 241.964 479.56L245.004 480.8C244.738 481.067 244.458 481.427 244.164 481.88C243.871 482.36 243.631 482.773 243.444 483.12C242.724 484.533 241.884 485.747 240.924 486.76C239.991 487.773 238.871 488.533 237.564 489.04C236.258 489.573 234.684 489.84 232.844 489.84ZM265.684 477.48C264.271 477.48 262.978 477.133 261.804 476.44C260.631 475.72 259.698 474.613 259.004 473.12C258.338 471.627 258.004 469.68 258.004 467.28C258.004 465.093 258.324 463.2 258.964 461.6C259.631 459.973 260.538 458.627 261.684 457.56C262.831 456.493 264.124 455.693 265.564 455.16C267.004 454.627 268.498 454.36 270.044 454.36C271.218 454.36 272.271 454.48 273.204 454.72C274.138 454.933 274.991 455.253 275.764 455.68C276.538 456.08 277.258 456.56 277.924 457.12L277.404 460.96C276.471 459.787 275.404 458.893 274.204 458.28C273.031 457.64 271.604 457.32 269.924 457.32C268.138 457.32 266.591 457.773 265.284 458.68C263.978 459.56 262.964 460.773 262.244 462.32C261.524 463.84 261.164 465.573 261.164 467.52C261.164 469.307 261.364 470.733 261.764 471.8C262.191 472.84 262.751 473.6 263.444 474.08C264.164 474.533 264.964 474.76 265.844 474.76C266.564 474.76 267.178 474.613 267.684 474.32C268.218 474 268.618 473.547 268.884 472.96C269.178 472.373 269.324 471.653 269.324 470.8C269.324 469.467 268.978 468.453 268.284 467.76C267.591 467.04 266.698 466.68 265.604 466.68C264.538 466.68 263.538 466.96 262.604 467.52C261.671 468.08 260.818 468.787 260.044 469.64L259.444 467.08C260.244 466.147 261.231 465.387 262.404 464.8C263.604 464.187 264.858 463.88 266.164 463.88C268.084 463.88 269.631 464.467 270.804 465.64C272.004 466.813 272.604 468.4 272.604 470.4C272.604 471.867 272.324 473.133 271.764 474.2C271.204 475.267 270.404 476.08 269.364 476.64C268.351 477.2 267.124 477.48 265.684 477.48ZM277.204 477V460.36L277.684 457.24V454.84H297.844V457.72H291.044V477H287.604V457.72H280.644V477H277.204Z" fill="url(#paint3_linear_3_81)"/>
<path id="&#224;&#174;&#137;" d="M245.215 202.7C248.782 202.7 251.682 203.2 253.915 204.2C256.149 205.167 257.782 206.483 258.815 208.15C259.882 209.783 260.415 211.583 260.415 213.55C260.415 215.483 260.065 217.1 259.365 218.4C258.665 219.667 257.665 220.7 256.365 221.5C255.065 222.267 253.515 222.867 251.715 223.3C249.915 223.7 247.932 224.017 245.765 224.25L241.765 224.65C239.932 224.817 238.782 225.017 238.315 225.25C237.849 225.483 237.615 225.817 237.615 226.25C237.615 226.65 237.749 226.95 238.015 227.15C238.315 227.317 238.782 227.4 239.415 227.4H282.815V231H239.865C238.299 231 237.032 230.8 236.065 230.4C235.132 229.967 234.449 229.4 234.015 228.7C233.615 227.967 233.415 227.167 233.415 226.3C233.415 225.3 233.682 224.45 234.215 223.75C234.749 223.05 235.615 222.483 236.815 222.05C238.015 221.617 239.615 221.3 241.615 221.1L245.465 220.75C248.499 220.45 250.765 219.95 252.265 219.25C253.799 218.517 254.815 217.65 255.315 216.65C255.849 215.65 256.115 214.617 256.115 213.55C256.115 212.15 255.749 210.917 255.015 209.85C254.315 208.783 253.265 207.933 251.865 207.3C250.499 206.633 248.815 206.267 246.815 206.2L245.415 206.15C245.049 206.15 244.665 206.15 244.265 206.15C243.899 206.15 243.632 206.15 243.465 206.15C241.665 206.15 240.149 206.55 238.915 207.35C237.715 208.15 237.115 209.383 237.115 211.05C237.115 212.283 237.465 213.317 238.165 214.15C238.865 214.983 239.949 215.4 241.415 215.4C242.682 215.4 243.682 215.017 244.415 214.25C245.182 213.45 245.565 212.333 245.565 210.9C245.565 209.933 245.382 209 245.015 208.1C244.682 207.167 244.082 206.3 243.215 205.5L246.215 204.65C246.815 205.117 247.349 205.7 247.815 206.4C248.315 207.067 248.715 207.817 249.015 208.65C249.315 209.483 249.465 210.4 249.465 211.4C249.465 213.567 248.765 215.35 247.365 216.75C245.999 218.117 243.982 218.8 241.315 218.8C239.715 218.8 238.299 218.483 237.065 217.85C235.865 217.217 234.915 216.317 234.215 215.15C233.515 213.983 233.165 212.633 233.165 211.1C233.165 209.2 233.682 207.633 234.715 206.4C235.749 205.133 237.165 204.2 238.965 203.6C240.799 203 242.882 202.7 245.215 202.7Z" fill="url(#paint4_linear_3_81)"/>
</g>
</g>
<defs>
<filter id="filter0_i_3_81" x="0" y="0" width="512" height="516" filterUnits="userSpaceOnUse" color-interpolation-filters="sRGB">
<feFlood flood-opacity="0" result="BackgroundImageFix"/>
<feBlend mode="normal" in="SourceGraphic" in2="BackgroundImageFix" result="shape"/>
<feColorMatrix in="SourceAlpha" type="matrix" values="0 0 0 0 0 0 0 0 0 0 0 0 0 0 0 0 0 0 127 0" result="hardAlpha"/>
<feOffset dy="4"/>
<feGaussianBlur stdDeviation="2"/>
<feComposite in2="hardAlpha" operator="arithmetic" k2="-1" k3="1"/>
<feColorMatrix type="matrix" values="0 0 0 0 0 0 0 0 0 0 0 0 0 0 0 0 0 0 0.25 0"/>
<feBlend mode="normal" in2="shape" result="effect1_innerShadow_3_81"/>
</filter>
<linearGradient id="paint0_linear_3_81" x1="256" y1="0" x2="256" y2="512" gradientUnits="userSpaceOnUse">
<stop stop-color="#FF0707"/>
<stop offset="1" stop-color="#C81313" stop-opacity="0"/>
</linearGradient>
<linearGradient id="paint1_linear_3_81" x1="256" y1="368" x2="256" y2="430" gradientUnits="userSpaceOnUse">
<stop stop-color="#5056D7"/>
<stop offset="1" stop-color="#451DE3"/>
</linearGradient>
<linearGradient id="paint2_linear_3_81" x1="255" y1="423.951" x2="255" y2="402.275" gradientUnits="userSpaceOnUse">
<stop stop-color="#9296F5"/>
<stop offset="1" stop-color="#080627"/>
</linearGradient>
<linearGradient id="paint3_linear_3_81" x1="257.5" y1="439" x2="257.5" y2="485" gradientUnits="userSpaceOnUse">
<stop stop-color="#8078D3"/>
<stop offset="1" stop-color="#FF0000"/>
</linearGradient>
<linearGradient id="paint4_linear_3_81" x1="257" y1="184" x2="257" y2="241" gradientUnits="userSpaceOnUse">
<stop stop-color="#FCD6D6"/>
<stop offset="1" stop-color="#FF0000"/>
</linearGradient>
</defs>
</svg>
