<svg width="728" height="1440" viewBox="0 0 728 1440" fill="none" xmlns="http://www.w3.org/2000/svg">
<g clip-path="url(#clip0_4_82)">
<rect width="728" height="1440" fill="#1D1F12" fill-opacity="0.5"/>
<path d="M126.745 68.55C131.811 68.55 134.345 66.8167 134.345 63.35C134.345 62.2833 134.111 61.3833 133.645 60.65C133.211 59.8833 132.611 59.2333 131.845 58.7C131.078 58.1333 130.195 57.65 129.195 57.25C128.228 56.85 127.195 56.45 126.095 56.05C124.828 55.6167 123.628 55.1333 122.495 54.6C121.361 54.0333 120.378 53.3833 119.545 52.65C118.711 51.8833 118.045 50.9833 117.545 49.95C117.078 48.9167 116.845 47.6667 116.845 46.2C116.845 43.1667 117.878 40.8 119.945 39.1C122.011 37.4 124.861 36.55 128.495 36.55C130.595 36.55 132.495 36.7833 134.195 37.25C135.928 37.6833 137.195 38.1667 137.995 38.7L136.445 42.65C135.745 42.2167 134.695 41.8 133.295 41.4C131.928 40.9667 130.328 40.75 128.495 40.75C127.561 40.75 126.695 40.85 125.895 41.05C125.095 41.25 124.395 41.55 123.795 41.95C123.195 42.35 122.711 42.8667 122.345 43.5C122.011 44.1 121.845 44.8167 121.845 45.65C121.845 46.5833 122.028 47.3667 122.395 48C122.761 48.6333 123.278 49.2 123.945 49.7C124.611 50.1667 125.378 50.6 126.245 51C127.145 51.4 128.128 51.8 129.195 52.2C130.695 52.8 132.061 53.4 133.295 54C134.561 54.6 135.645 55.3167 136.545 56.15C137.478 56.9833 138.195 57.9833 138.695 59.15C139.195 60.2833 139.445 61.6667 139.445 63.3C139.445 66.3333 138.328 68.6667 136.095 70.3C133.895 71.9333 130.778 72.75 126.745 72.75C125.378 72.75 124.111 72.65 122.945 72.45C121.811 72.2833 120.795 72.0833 119.895 71.85C118.995 71.5833 118.211 71.3167 117.545 71.05C116.911 70.75 116.411 70.5 116.045 70.3L117.495 66.3C118.261 66.7333 119.428 67.2167 120.995 67.75C122.561 68.2833 124.478 68.55 126.745 68.55ZM165.706 71.25C164.639 71.5167 163.223 71.8 161.456 72.1C159.723 72.4 157.706 72.55 155.406 72.55C153.406 72.55 151.723 72.2667 150.356 71.7C148.989 71.1 147.889 70.2667 147.056 69.2C146.223 68.1333 145.623 66.8833 145.256 65.45C144.889 63.9833 144.706 62.3667 144.706 60.6V46H149.356V59.6C149.356 62.7667 149.856 65.0333 150.856 66.4C151.856 67.7667 153.539 68.45 155.906 68.45C156.406 68.45 156.923 68.4333 157.456 68.4C157.989 68.3667 158.489 68.3333 158.956 68.3C159.423 68.2333 159.839 68.1833 160.206 68.15C160.606 68.0833 160.889 68.0167 161.056 67.95V46H165.706V71.25ZM173.717 46.75C174.783 46.4833 176.2 46.2 177.967 45.9C179.733 45.6 181.767 45.45 184.067 45.45C186.133 45.45 187.85 45.75 189.217 46.35C190.583 46.9167 191.667 47.7333 192.467 48.8C193.3 49.8333 193.883 51.0833 194.217 52.55C194.55 54.0167 194.717 55.6333 194.717 57.4V72H190.067V58.4C190.067 56.8 189.95 55.4333 189.717 54.3C189.517 53.1667 189.167 52.25 188.667 51.55C188.167 50.85 187.5 50.35 186.667 50.05C185.833 49.7167 184.8 49.55 183.567 49.55C183.067 49.55 182.55 49.5667 182.017 49.6C181.483 49.6333 180.967 49.6833 180.467 49.75C180 49.7833 179.567 49.8333 179.167 49.9C178.8 49.9667 178.533 50.0167 178.367 50.05V72H173.717V46.75ZM212.028 45.45C212.428 45.45 212.878 45.4833 213.378 45.55C213.911 45.5833 214.428 45.65 214.928 45.75C215.428 45.8167 215.878 45.9 216.278 46C216.711 46.0667 217.028 46.1333 217.228 46.2L216.428 50.25C216.061 50.1167 215.444 49.9667 214.578 49.8C213.744 49.6 212.661 49.5 211.328 49.5C210.461 49.5 209.594 49.6 208.728 49.8C207.894 49.9667 207.344 50.0833 207.078 50.15V72H202.428V47.1C203.528 46.7 204.894 46.3333 206.528 46C208.161 45.6333 209.994 45.45 212.028 45.45ZM226.365 72H221.715V46H226.365V72ZM224.015 41.3C223.182 41.3 222.465 41.0333 221.865 40.5C221.298 39.9333 221.015 39.1833 221.015 38.25C221.015 37.3167 221.298 36.5833 221.865 36.05C222.465 35.4833 223.182 35.2 224.015 35.2C224.848 35.2 225.548 35.4833 226.115 36.05C226.715 36.5833 227.015 37.3167 227.015 38.25C227.015 39.1833 226.715 39.9333 226.115 40.5C225.548 41.0333 224.848 41.3 224.015 41.3ZM240.411 68.65C242.311 68.65 243.711 68.4 244.611 67.9C245.545 67.4 246.011 66.6 246.011 65.5C246.011 64.3667 245.561 63.4667 244.661 62.8C243.761 62.1333 242.278 61.3833 240.211 60.55C239.211 60.15 238.245 59.75 237.311 59.35C236.411 58.9167 235.628 58.4167 234.961 57.85C234.295 57.2833 233.761 56.6 233.361 55.8C232.961 55 232.761 54.0167 232.761 52.85C232.761 50.55 233.611 48.7333 235.311 47.4C237.011 46.0333 239.328 45.35 242.261 45.35C242.995 45.35 243.728 45.4 244.461 45.5C245.195 45.5667 245.878 45.6667 246.511 45.8C247.145 45.9 247.695 46.0167 248.161 46.15C248.661 46.2833 249.045 46.4 249.311 46.5L248.461 50.5C247.961 50.2333 247.178 49.9667 246.111 49.7C245.045 49.4 243.761 49.25 242.261 49.25C240.961 49.25 239.828 49.5167 238.861 50.05C237.895 50.55 237.411 51.35 237.411 52.45C237.411 53.0167 237.511 53.5167 237.711 53.95C237.945 54.3833 238.278 54.7833 238.711 55.15C239.178 55.4833 239.745 55.8 240.411 56.1C241.078 56.4 241.878 56.7167 242.811 57.05C244.045 57.5167 245.145 57.9833 246.111 58.45C247.078 58.8833 247.895 59.4 248.561 60C249.261 60.6 249.795 61.3333 250.161 62.2C250.528 63.0333 250.711 64.0667 250.711 65.3C250.711 67.7 249.811 69.5167 248.011 70.75C246.245 71.9833 243.711 72.6 240.411 72.6C238.111 72.6 236.311 72.4 235.011 72C233.711 71.6333 232.828 71.35 232.361 71.15L233.211 67.15C233.745 67.35 234.595 67.65 235.761 68.05C236.928 68.45 238.478 68.65 240.411 68.65ZM255.226 59.05C255.226 56.75 255.559 54.75 256.226 53.05C256.892 51.3167 257.776 49.8833 258.876 48.75C259.976 47.6167 261.242 46.7667 262.676 46.2C264.109 45.6333 265.576 45.35 267.076 45.35C270.576 45.35 273.259 46.45 275.126 48.65C276.992 50.8167 277.926 54.1333 277.926 58.6C277.926 58.8 277.926 59.0667 277.926 59.4C277.926 59.7 277.909 59.9833 277.876 60.25H260.076C260.276 62.95 261.059 65 262.426 66.4C263.792 67.8 265.926 68.5 268.826 68.5C270.459 68.5 271.826 68.3667 272.926 68.1C274.059 67.8 274.909 67.5167 275.476 67.25L276.126 71.15C275.559 71.45 274.559 71.7667 273.126 72.1C271.726 72.4333 270.126 72.6 268.326 72.6C266.059 72.6 264.092 72.2667 262.426 71.6C260.792 70.9 259.442 69.95 258.376 68.75C257.309 67.55 256.509 66.1333 255.976 64.5C255.476 62.8333 255.226 61.0167 255.226 59.05ZM273.076 56.5C273.109 54.4 272.576 52.6833 271.476 51.35C270.409 49.9833 268.926 49.3 267.026 49.3C265.959 49.3 265.009 49.5167 264.176 49.95C263.376 50.35 262.692 50.8833 262.126 51.55C261.559 52.2167 261.109 52.9833 260.776 53.85C260.476 54.7167 260.276 55.6 260.176 56.5H273.076Z" fill="white"/>
<path d="M132.653 791.55C137.719 791.55 140.253 789.817 140.253 786.35C140.253 785.283 140.019 784.383 139.553 783.65C139.119 782.883 138.519 782.233 137.753 781.7C136.986 781.133 136.103 780.65 135.103 780.25C134.136 779.85 133.103 779.45 132.003 779.05C130.736 778.617 129.536 778.133 128.403 777.6C127.269 777.033 126.286 776.383 125.453 775.65C124.619 774.883 123.953 773.983 123.453 772.95C122.986 771.917 122.753 770.667 122.753 769.2C122.753 766.167 123.786 763.8 125.853 762.1C127.919 760.4 130.769 759.55 134.403 759.55C136.503 759.55 138.403 759.783 140.103 760.25C141.836 760.683 143.103 761.167 143.903 761.7L142.353 765.65C141.653 765.217 140.603 764.8 139.203 764.4C137.836 763.967 136.236 763.75 134.403 763.75C133.469 763.75 132.603 763.85 131.803 764.05C131.003 764.25 130.303 764.55 129.703 764.95C129.103 765.35 128.619 765.867 128.253 766.5C127.919 767.1 127.753 767.817 127.753 768.65C127.753 769.583 127.936 770.367 128.303 771C128.669 771.633 129.186 772.2 129.853 772.7C130.519 773.167 131.286 773.6 132.153 774C133.053 774.4 134.036 774.8 135.103 775.2C136.603 775.8 137.969 776.4 139.203 777C140.469 777.6 141.553 778.317 142.453 779.15C143.386 779.983 144.103 780.983 144.603 782.15C145.103 783.283 145.353 784.667 145.353 786.3C145.353 789.333 144.236 791.667 142.003 793.3C139.803 794.933 136.686 795.75 132.653 795.75C131.286 795.75 130.019 795.65 128.853 795.45C127.719 795.283 126.703 795.083 125.803 794.85C124.903 794.583 124.119 794.317 123.453 794.05C122.819 793.75 122.319 793.5 121.953 793.3L123.403 789.3C124.169 789.733 125.336 790.217 126.903 790.75C128.469 791.283 130.386 791.55 132.653 791.55ZM171.614 794.25C170.547 794.517 169.131 794.8 167.364 795.1C165.631 795.4 163.614 795.55 161.314 795.55C159.314 795.55 157.631 795.267 156.264 794.7C154.897 794.1 153.797 793.267 152.964 792.2C152.131 791.133 151.531 789.883 151.164 788.45C150.797 786.983 150.614 785.367 150.614 783.6V769H155.264V782.6C155.264 785.767 155.764 788.033 156.764 789.4C157.764 790.767 159.447 791.45 161.814 791.45C162.314 791.45 162.831 791.433 163.364 791.4C163.897 791.367 164.397 791.333 164.864 791.3C165.331 791.233 165.747 791.183 166.114 791.15C166.514 791.083 166.797 791.017 166.964 790.95V769H171.614V794.25ZM179.625 769.75C180.692 769.483 182.108 769.2 183.875 768.9C185.642 768.6 187.675 768.45 189.975 768.45C192.042 768.45 193.758 768.75 195.125 769.35C196.492 769.917 197.575 770.733 198.375 771.8C199.208 772.833 199.792 774.083 200.125 775.55C200.458 777.017 200.625 778.633 200.625 780.4V795H195.975V781.4C195.975 779.8 195.858 778.433 195.625 777.3C195.425 776.167 195.075 775.25 194.575 774.55C194.075 773.85 193.408 773.35 192.575 773.05C191.742 772.717 190.708 772.55 189.475 772.55C188.975 772.55 188.458 772.567 187.925 772.6C187.392 772.633 186.875 772.683 186.375 772.75C185.908 772.783 185.475 772.833 185.075 772.9C184.708 772.967 184.442 773.017 184.275 773.05V795H179.625V769.75ZM214.386 791.65C216.286 791.65 217.686 791.4 218.586 790.9C219.519 790.4 219.986 789.6 219.986 788.5C219.986 787.367 219.536 786.467 218.636 785.8C217.736 785.133 216.253 784.383 214.186 783.55C213.186 783.15 212.219 782.75 211.286 782.35C210.386 781.917 209.603 781.417 208.936 780.85C208.269 780.283 207.736 779.6 207.336 778.8C206.936 778 206.736 777.017 206.736 775.85C206.736 773.55 207.586 771.733 209.286 770.4C210.986 769.033 213.303 768.35 216.236 768.35C216.969 768.35 217.703 768.4 218.436 768.5C219.169 768.567 219.853 768.667 220.486 768.8C221.119 768.9 221.669 769.017 222.136 769.15C222.636 769.283 223.019 769.4 223.286 769.5L222.436 773.5C221.936 773.233 221.153 772.967 220.086 772.7C219.019 772.4 217.736 772.25 216.236 772.25C214.936 772.25 213.803 772.517 212.836 773.05C211.869 773.55 211.386 774.35 211.386 775.45C211.386 776.017 211.486 776.517 211.686 776.95C211.919 777.383 212.253 777.783 212.686 778.15C213.153 778.483 213.719 778.8 214.386 779.1C215.053 779.4 215.853 779.717 216.786 780.05C218.019 780.517 219.119 780.983 220.086 781.45C221.053 781.883 221.869 782.4 222.536 783C223.236 783.6 223.769 784.333 224.136 785.2C224.503 786.033 224.686 787.067 224.686 788.3C224.686 790.7 223.786 792.517 221.986 793.75C220.219 794.983 217.686 795.6 214.386 795.6C212.086 795.6 210.286 795.4 208.986 795C207.686 794.633 206.803 794.35 206.336 794.15L207.186 790.15C207.719 790.35 208.569 790.65 209.736 791.05C210.903 791.45 212.453 791.65 214.386 791.65ZM229.2 782.05C229.2 779.75 229.534 777.75 230.2 776.05C230.867 774.317 231.75 772.883 232.85 771.75C233.95 770.617 235.217 769.767 236.65 769.2C238.084 768.633 239.55 768.35 241.05 768.35C244.55 768.35 247.234 769.45 249.1 771.65C250.967 773.817 251.9 777.133 251.9 781.6C251.9 781.8 251.9 782.067 251.9 782.4C251.9 782.7 251.884 782.983 251.85 783.25H234.05C234.25 785.95 235.034 788 236.4 789.4C237.767 790.8 239.9 791.5 242.8 791.5C244.434 791.5 245.8 791.367 246.9 791.1C248.034 790.8 248.884 790.517 249.45 790.25L250.1 794.15C249.534 794.45 248.534 794.767 247.1 795.1C245.7 795.433 244.1 795.6 242.3 795.6C240.034 795.6 238.067 795.267 236.4 794.6C234.767 793.9 233.417 792.95 232.35 791.75C231.284 790.55 230.484 789.133 229.95 787.5C229.45 785.833 229.2 784.017 229.2 782.05ZM247.05 779.5C247.084 777.4 246.55 775.683 245.45 774.35C244.384 772.983 242.9 772.3 241 772.3C239.934 772.3 238.984 772.517 238.15 772.95C237.35 773.35 236.667 773.883 236.1 774.55C235.534 775.217 235.084 775.983 234.75 776.85C234.45 777.717 234.25 778.6 234.15 779.5H247.05ZM262.93 769H272.78V772.9H262.93V784.9C262.93 786.2 263.03 787.283 263.23 788.15C263.43 788.983 263.73 789.65 264.13 790.15C264.53 790.617 265.03 790.95 265.63 791.15C266.23 791.35 266.93 791.45 267.73 791.45C269.13 791.45 270.247 791.3 271.08 791C271.947 790.667 272.547 790.433 272.88 790.3L273.78 794.15C273.313 794.383 272.497 794.667 271.33 795C270.163 795.367 268.83 795.55 267.33 795.55C265.563 795.55 264.097 795.333 262.93 794.9C261.797 794.433 260.88 793.75 260.18 792.85C259.48 791.95 258.98 790.85 258.68 789.55C258.413 788.217 258.28 786.683 258.28 784.95V761.75L262.93 760.95V769Z" fill="white"/>
<path d="M61.8244 1316C61.0911 1314.77 60.2411 1313.38 59.2744 1311.85C58.3411 1310.32 57.3244 1308.73 56.2244 1307.1C55.1244 1305.43 53.9744 1303.75 52.7744 1302.05C51.6077 1300.35 50.4411 1298.72 49.2744 1297.15C48.1077 1295.55 46.9744 1294.05 45.8744 1292.65C44.7744 1291.25 43.7577 1290.02 42.8244 1288.95V1316H38.0744V1281.35H41.9244C43.4911 1283.02 45.1577 1284.97 46.9244 1287.2C48.7244 1289.4 50.4911 1291.68 52.2244 1294.05C53.9911 1296.38 55.6411 1298.68 57.1744 1300.95C58.7411 1303.22 60.0577 1305.23 61.1244 1307V1281.35H65.8744V1316H61.8244ZM72.7014 1303.05C72.7014 1300.75 73.0347 1298.75 73.7014 1297.05C74.368 1295.32 75.2514 1293.88 76.3514 1292.75C77.4514 1291.62 78.718 1290.77 80.1514 1290.2C81.5847 1289.63 83.0514 1289.35 84.5514 1289.35C88.0514 1289.35 90.7347 1290.45 92.6014 1292.65C94.468 1294.82 95.4014 1298.13 95.4014 1302.6C95.4014 1302.8 95.4014 1303.07 95.4014 1303.4C95.4014 1303.7 95.3847 1303.98 95.3514 1304.25H77.5514C77.7514 1306.95 78.5347 1309 79.9014 1310.4C81.268 1311.8 83.4014 1312.5 86.3014 1312.5C87.9347 1312.5 89.3014 1312.37 90.4014 1312.1C91.5347 1311.8 92.3847 1311.52 92.9514 1311.25L93.6014 1315.15C93.0347 1315.45 92.0347 1315.77 90.6014 1316.1C89.2014 1316.43 87.6014 1316.6 85.8014 1316.6C83.5347 1316.6 81.568 1316.27 79.9014 1315.6C78.268 1314.9 76.918 1313.95 75.8514 1312.75C74.7847 1311.55 73.9847 1310.13 73.4514 1308.5C72.9514 1306.83 72.7014 1305.02 72.7014 1303.05ZM90.5514 1300.5C90.5847 1298.4 90.0514 1296.68 88.9514 1295.35C87.8847 1293.98 86.4014 1293.3 84.5014 1293.3C83.4347 1293.3 82.4847 1293.52 81.6514 1293.95C80.8514 1294.35 80.168 1294.88 79.6014 1295.55C79.0347 1296.22 78.5847 1296.98 78.2514 1297.85C77.9514 1298.72 77.7514 1299.6 77.6514 1300.5H90.5514ZM117.631 1316C117.264 1315.27 116.814 1314.45 116.281 1313.55C115.748 1312.65 115.164 1311.73 114.531 1310.8C113.898 1309.83 113.248 1308.88 112.581 1307.95C111.914 1307.02 111.264 1306.13 110.631 1305.3C109.998 1306.13 109.348 1307.03 108.681 1308C108.014 1308.93 107.364 1309.88 106.731 1310.85C106.131 1311.78 105.564 1312.7 105.031 1313.6C104.498 1314.5 104.048 1315.3 103.681 1316H98.8811C100.048 1313.73 101.431 1311.43 103.031 1309.1C104.664 1306.73 106.281 1304.48 107.881 1302.35L99.2811 1290H104.531L110.731 1299.1L116.981 1290H121.931L113.531 1302.05C115.131 1304.22 116.764 1306.52 118.431 1308.95C120.131 1311.35 121.564 1313.7 122.731 1316H117.631ZM131.968 1290H141.818V1293.9H131.968V1305.9C131.968 1307.2 132.068 1308.28 132.268 1309.15C132.468 1309.98 132.768 1310.65 133.168 1311.15C133.568 1311.62 134.068 1311.95 134.668 1312.15C135.268 1312.35 135.968 1312.45 136.768 1312.45C138.168 1312.45 139.285 1312.3 140.118 1312C140.985 1311.67 141.585 1311.43 141.918 1311.3L142.818 1315.15C142.351 1315.38 141.535 1315.67 140.368 1316C139.201 1316.37 137.868 1316.55 136.368 1316.55C134.601 1316.55 133.135 1316.33 131.968 1315.9C130.835 1315.43 129.918 1314.75 129.218 1313.85C128.518 1312.95 128.018 1311.85 127.718 1310.55C127.451 1309.22 127.318 1307.68 127.318 1305.95V1282.75L131.968 1281.95V1290ZM163.852 1295.5C163.285 1295.03 162.468 1294.58 161.402 1294.15C160.335 1293.72 159.168 1293.5 157.902 1293.5C156.568 1293.5 155.418 1293.75 154.452 1294.25C153.518 1294.72 152.752 1295.38 152.152 1296.25C151.552 1297.08 151.118 1298.08 150.852 1299.25C150.585 1300.42 150.452 1301.67 150.452 1303C150.452 1306.03 151.202 1308.38 152.702 1310.05C154.202 1311.68 156.202 1312.5 158.702 1312.5C159.968 1312.5 161.018 1312.45 161.852 1312.35C162.718 1312.22 163.385 1312.08 163.852 1311.95V1295.5ZM163.852 1278L168.502 1277.2V1315.25C167.435 1315.55 166.068 1315.85 164.402 1316.15C162.735 1316.45 160.818 1316.6 158.652 1316.6C156.652 1316.6 154.852 1316.28 153.252 1315.65C151.652 1315.02 150.285 1314.12 149.152 1312.95C148.018 1311.78 147.135 1310.37 146.502 1308.7C145.902 1307 145.602 1305.1 145.602 1303C145.602 1301 145.852 1299.17 146.352 1297.5C146.885 1295.83 147.652 1294.4 148.652 1293.2C149.652 1292 150.868 1291.07 152.302 1290.4C153.768 1289.73 155.435 1289.4 157.302 1289.4C158.802 1289.4 160.118 1289.6 161.252 1290C162.418 1290.4 163.285 1290.78 163.852 1291.15V1278ZM185.295 1312.65C186.395 1312.65 187.362 1312.63 188.195 1312.6C189.062 1312.53 189.778 1312.43 190.345 1312.3V1304.55C190.012 1304.38 189.462 1304.25 188.695 1304.15C187.962 1304.02 187.062 1303.95 185.995 1303.95C185.295 1303.95 184.545 1304 183.745 1304.1C182.978 1304.2 182.262 1304.42 181.595 1304.75C180.962 1305.05 180.428 1305.48 179.995 1306.05C179.562 1306.58 179.345 1307.3 179.345 1308.2C179.345 1309.87 179.878 1311.03 180.945 1311.7C182.012 1312.33 183.462 1312.65 185.295 1312.65ZM184.895 1289.35C186.762 1289.35 188.328 1289.6 189.595 1290.1C190.895 1290.57 191.928 1291.25 192.695 1292.15C193.495 1293.02 194.062 1294.07 194.395 1295.3C194.728 1296.5 194.895 1297.83 194.895 1299.3V1315.55C194.495 1315.62 193.928 1315.72 193.195 1315.85C192.495 1315.95 191.695 1316.05 190.795 1316.15C189.895 1316.25 188.912 1316.33 187.845 1316.4C186.812 1316.5 185.778 1316.55 184.745 1316.55C183.278 1316.55 181.928 1316.4 180.695 1316.1C179.462 1315.8 178.395 1315.33 177.495 1314.7C176.595 1314.03 175.895 1313.17 175.395 1312.1C174.895 1311.03 174.645 1309.75 174.645 1308.25C174.645 1306.82 174.928 1305.58 175.495 1304.55C176.095 1303.52 176.895 1302.68 177.895 1302.05C178.895 1301.42 180.062 1300.95 181.395 1300.65C182.728 1300.35 184.128 1300.2 185.595 1300.2C186.062 1300.2 186.545 1300.23 187.045 1300.3C187.545 1300.33 188.012 1300.4 188.445 1300.5C188.912 1300.57 189.312 1300.63 189.645 1300.7C189.978 1300.77 190.212 1300.82 190.345 1300.85V1299.55C190.345 1298.78 190.262 1298.03 190.095 1297.3C189.928 1296.53 189.628 1295.87 189.195 1295.3C188.762 1294.7 188.162 1294.23 187.395 1293.9C186.662 1293.53 185.695 1293.35 184.495 1293.35C182.962 1293.35 181.612 1293.47 180.445 1293.7C179.312 1293.9 178.462 1294.12 177.895 1294.35L177.345 1290.5C177.945 1290.23 178.945 1289.98 180.345 1289.75C181.745 1289.48 183.262 1289.35 184.895 1289.35ZM198.836 1320.85C199.202 1321.02 199.669 1321.17 200.236 1321.3C200.836 1321.47 201.419 1321.55 201.986 1321.55C203.819 1321.55 205.252 1321.13 206.286 1320.3C207.319 1319.5 208.252 1318.18 209.086 1316.35C206.986 1312.35 205.019 1308.12 203.186 1303.65C201.386 1299.15 199.886 1294.6 198.686 1290H203.686C204.052 1291.5 204.486 1293.12 204.986 1294.85C205.519 1296.58 206.102 1298.37 206.736 1300.2C207.369 1302.03 208.052 1303.87 208.786 1305.7C209.519 1307.53 210.286 1309.3 211.086 1311C212.352 1307.5 213.452 1304.03 214.386 1300.6C215.319 1297.17 216.202 1293.63 217.036 1290H221.836C220.636 1294.9 219.302 1299.62 217.836 1304.15C216.369 1308.65 214.786 1312.87 213.086 1316.8C212.419 1318.3 211.719 1319.58 210.986 1320.65C210.286 1321.75 209.502 1322.65 208.636 1323.35C207.769 1324.05 206.786 1324.57 205.686 1324.9C204.619 1325.23 203.402 1325.4 202.036 1325.4C201.669 1325.4 201.286 1325.37 200.886 1325.3C200.486 1325.27 200.086 1325.2 199.686 1325.1C199.319 1325.03 198.969 1324.95 198.636 1324.85C198.336 1324.75 198.119 1324.67 197.986 1324.6L198.836 1320.85ZM244.362 1312.65C246.262 1312.65 247.662 1312.4 248.562 1311.9C249.495 1311.4 249.962 1310.6 249.962 1309.5C249.962 1308.37 249.512 1307.47 248.612 1306.8C247.712 1306.13 246.228 1305.38 244.162 1304.55C243.162 1304.15 242.195 1303.75 241.262 1303.35C240.362 1302.92 239.578 1302.42 238.912 1301.85C238.245 1301.28 237.712 1300.6 237.312 1299.8C236.912 1299 236.712 1298.02 236.712 1296.85C236.712 1294.55 237.562 1292.73 239.262 1291.4C240.962 1290.03 243.278 1289.35 246.212 1289.35C246.945 1289.35 247.678 1289.4 248.412 1289.5C249.145 1289.57 249.828 1289.67 250.462 1289.8C251.095 1289.9 251.645 1290.02 252.112 1290.15C252.612 1290.28 252.995 1290.4 253.262 1290.5L252.412 1294.5C251.912 1294.23 251.128 1293.97 250.062 1293.7C248.995 1293.4 247.712 1293.25 246.212 1293.25C244.912 1293.25 243.778 1293.52 242.812 1294.05C241.845 1294.55 241.362 1295.35 241.362 1296.45C241.362 1297.02 241.462 1297.52 241.662 1297.95C241.895 1298.38 242.228 1298.78 242.662 1299.15C243.128 1299.48 243.695 1299.8 244.362 1300.1C245.028 1300.4 245.828 1300.72 246.762 1301.05C247.995 1301.52 249.095 1301.98 250.062 1302.45C251.028 1302.88 251.845 1303.4 252.512 1304C253.212 1304.6 253.745 1305.33 254.112 1306.2C254.478 1307.03 254.662 1308.07 254.662 1309.3C254.662 1311.7 253.762 1313.52 251.962 1314.75C250.195 1315.98 247.662 1316.6 244.362 1316.6C242.062 1316.6 240.262 1316.4 238.962 1316C237.662 1315.63 236.778 1315.35 236.312 1315.15L237.162 1311.15C237.695 1311.35 238.545 1311.65 239.712 1312.05C240.878 1312.45 242.428 1312.65 244.362 1312.65ZM281.326 1315.25C280.259 1315.52 278.843 1315.8 277.076 1316.1C275.343 1316.4 273.326 1316.55 271.026 1316.55C269.026 1316.55 267.343 1316.27 265.976 1315.7C264.609 1315.1 263.509 1314.27 262.676 1313.2C261.843 1312.13 261.243 1310.88 260.876 1309.45C260.509 1307.98 260.326 1306.37 260.326 1304.6V1290H264.976V1303.6C264.976 1306.77 265.476 1309.03 266.476 1310.4C267.476 1311.77 269.159 1312.45 271.526 1312.45C272.026 1312.45 272.543 1312.43 273.076 1312.4C273.609 1312.37 274.109 1312.33 274.576 1312.3C275.043 1312.23 275.459 1312.18 275.826 1312.15C276.226 1312.08 276.509 1312.02 276.676 1311.95V1290H281.326V1315.25ZM289.337 1290.75C290.404 1290.48 291.82 1290.2 293.587 1289.9C295.354 1289.6 297.387 1289.45 299.687 1289.45C301.754 1289.45 303.47 1289.75 304.837 1290.35C306.204 1290.92 307.287 1291.73 308.087 1292.8C308.92 1293.83 309.504 1295.08 309.837 1296.55C310.17 1298.02 310.337 1299.63 310.337 1301.4V1316H305.687V1302.4C305.687 1300.8 305.57 1299.43 305.337 1298.3C305.137 1297.17 304.787 1296.25 304.287 1295.55C303.787 1294.85 303.12 1294.35 302.287 1294.05C301.454 1293.72 300.42 1293.55 299.187 1293.55C298.687 1293.55 298.17 1293.57 297.637 1293.6C297.104 1293.63 296.587 1293.68 296.087 1293.75C295.62 1293.78 295.187 1293.83 294.787 1293.9C294.42 1293.97 294.154 1294.02 293.987 1294.05V1316H289.337V1290.75ZM327.648 1289.45C328.048 1289.45 328.498 1289.48 328.998 1289.55C329.531 1289.58 330.048 1289.65 330.548 1289.75C331.048 1289.82 331.498 1289.9 331.898 1290C332.331 1290.07 332.648 1290.13 332.848 1290.2L332.048 1294.25C331.681 1294.12 331.065 1293.97 330.198 1293.8C329.365 1293.6 328.281 1293.5 326.948 1293.5C326.081 1293.5 325.215 1293.6 324.348 1293.8C323.515 1293.97 322.965 1294.08 322.698 1294.15V1316H318.048V1291.1C319.148 1290.7 320.515 1290.33 322.148 1290C323.781 1289.63 325.615 1289.45 327.648 1289.45ZM341.985 1316H337.335V1290H341.985V1316ZM339.635 1285.3C338.802 1285.3 338.085 1285.03 337.485 1284.5C336.918 1283.93 336.635 1283.18 336.635 1282.25C336.635 1281.32 336.918 1280.58 337.485 1280.05C338.085 1279.48 338.802 1279.2 339.635 1279.2C340.468 1279.2 341.168 1279.48 341.735 1280.05C342.335 1280.58 342.635 1281.32 342.635 1282.25C342.635 1283.18 342.335 1283.93 341.735 1284.5C341.168 1285.03 340.468 1285.3 339.635 1285.3ZM356.031 1312.65C357.931 1312.65 359.331 1312.4 360.231 1311.9C361.165 1311.4 361.631 1310.6 361.631 1309.5C361.631 1308.37 361.181 1307.47 360.281 1306.8C359.381 1306.13 357.898 1305.38 355.831 1304.55C354.831 1304.15 353.865 1303.75 352.931 1303.35C352.031 1302.92 351.248 1302.42 350.581 1301.85C349.915 1301.28 349.381 1300.6 348.981 1299.8C348.581 1299 348.381 1298.02 348.381 1296.85C348.381 1294.55 349.231 1292.73 350.931 1291.4C352.631 1290.03 354.948 1289.35 357.881 1289.35C358.615 1289.35 359.348 1289.4 360.081 1289.5C360.815 1289.57 361.498 1289.67 362.131 1289.8C362.765 1289.9 363.315 1290.02 363.781 1290.15C364.281 1290.28 364.665 1290.4 364.931 1290.5L364.081 1294.5C363.581 1294.23 362.798 1293.97 361.731 1293.7C360.665 1293.4 359.381 1293.25 357.881 1293.25C356.581 1293.25 355.448 1293.52 354.481 1294.05C353.515 1294.55 353.031 1295.35 353.031 1296.45C353.031 1297.02 353.131 1297.52 353.331 1297.95C353.565 1298.38 353.898 1298.78 354.331 1299.15C354.798 1299.48 355.365 1299.8 356.031 1300.1C356.698 1300.4 357.498 1300.72 358.431 1301.05C359.665 1301.52 360.765 1301.98 361.731 1302.45C362.698 1302.88 363.515 1303.4 364.181 1304C364.881 1304.6 365.415 1305.33 365.781 1306.2C366.148 1307.03 366.331 1308.07 366.331 1309.3C366.331 1311.7 365.431 1313.52 363.631 1314.75C361.865 1315.98 359.331 1316.6 356.031 1316.6C353.731 1316.6 351.931 1316.4 350.631 1316C349.331 1315.63 348.448 1315.35 347.981 1315.15L348.831 1311.15C349.365 1311.35 350.215 1311.65 351.381 1312.05C352.548 1312.45 354.098 1312.65 356.031 1312.65ZM370.846 1303.05C370.846 1300.75 371.179 1298.75 371.846 1297.05C372.513 1295.32 373.396 1293.88 374.496 1292.75C375.596 1291.62 376.863 1290.77 378.296 1290.2C379.729 1289.63 381.196 1289.35 382.696 1289.35C386.196 1289.35 388.879 1290.45 390.746 1292.65C392.613 1294.82 393.546 1298.13 393.546 1302.6C393.546 1302.8 393.546 1303.07 393.546 1303.4C393.546 1303.7 393.529 1303.98 393.496 1304.25H375.696C375.896 1306.95 376.679 1309 378.046 1310.4C379.413 1311.8 381.546 1312.5 384.446 1312.5C386.079 1312.5 387.446 1312.37 388.546 1312.1C389.679 1311.8 390.529 1311.52 391.096 1311.25L391.746 1315.15C391.179 1315.45 390.179 1315.77 388.746 1316.1C387.346 1316.43 385.746 1316.6 383.946 1316.6C381.679 1316.6 379.713 1316.27 378.046 1315.6C376.413 1314.9 375.063 1313.95 373.996 1312.75C372.929 1311.55 372.129 1310.13 371.596 1308.5C371.096 1306.83 370.846 1305.02 370.846 1303.05ZM388.696 1300.5C388.729 1298.4 388.196 1296.68 387.096 1295.35C386.029 1293.98 384.546 1293.3 382.646 1293.3C381.579 1293.3 380.629 1293.52 379.796 1293.95C378.996 1294.35 378.313 1294.88 377.746 1295.55C377.179 1296.22 376.729 1296.98 376.396 1297.85C376.096 1298.72 375.896 1299.6 375.796 1300.5H388.696Z" fill="white"/>
<path d="M176.846 1178.76C168.218 1181.04 164.455 1191.11 170.397 1197.77C188.104 1217.59 213.327 1234.48 243.983 1246.86C281.805 1262.13 326.115 1269.83 371.051 1268.93C415.986 1268.03 459.429 1258.58 495.632 1241.83C525.073 1228.21 548.597 1210.28 564.265 1189.7C569.532 1182.78 565.256 1173.26 556.758 1171.42L427.665 1143.34C422.045 1142.12 416.397 1144.9 412.292 1148.93C408.523 1152.63 403.69 1155.88 398.002 1158.52C388.65 1162.84 377.429 1165.28 365.821 1165.52C354.214 1165.75 342.768 1163.76 332.998 1159.81C326.799 1157.31 321.459 1154.09 317.238 1150.36C313.08 1146.68 307.501 1144.37 302.131 1145.79L176.846 1178.76Z" fill="#D9D9D9"/>
<path d="M147.622 536.611C140.844 541.815 140.846 552.034 147.901 556.855C175.845 575.952 207.911 591.227 242.707 601.973C283.341 614.522 326.861 620.636 370.651 619.948C414.441 619.26 457.598 611.784 497.53 597.969C531.669 586.158 562.848 569.922 589.72 550.008C596.582 544.922 596.181 534.718 589.208 529.786L392.658 390.769C387.849 387.368 381.383 387.879 375.841 389.875C375.713 389.921 375.584 389.967 375.454 390.012C372.029 391.197 368.327 391.838 364.57 391.897C360.814 391.956 357.081 391.432 353.596 390.355C353.432 390.305 353.27 390.253 353.107 390.2C347.511 388.377 341.04 388.126 336.371 391.71L147.622 536.611Z" fill="#D9D9D9"/>
<path d="M303.698 179.682C300.439 187.259 304.97 195.927 313.124 197.17C348.15 202.508 384.495 202.263 419.361 196.455C427.563 195.088 431.954 186.238 428.46 178.693L398.706 114.444C396.145 108.914 390.093 105.969 384.058 106.818C371.541 108.579 358.647 108.675 346.079 107.102C339.971 106.337 333.911 109.447 331.478 115.102L303.698 179.682Z" fill="#D9D9D9"/>
<path d="M488.525 634.22C495.246 628.026 493.625 617.043 485.153 613.615C448.848 598.929 407.189 591.069 364.562 591C321.918 590.932 280.185 598.665 243.766 613.246C235.287 616.64 233.619 627.608 240.304 633.832L325.491 713.146C329.421 716.805 335.168 717.562 340.277 715.907C347.679 713.508 355.831 712.251 364.131 712.264C372.43 712.277 380.572 713.561 387.957 715.983C393.054 717.655 398.799 716.925 402.744 713.289L488.525 634.22Z" fill="#D9D9D9"/>
<path d="M404.438 824.35C406.574 816.734 401.47 808.973 393.589 808.285C375.061 806.669 356.318 806.577 337.758 808.01C329.926 808.615 324.745 816.228 326.706 823.834L345.18 895.498C346.809 901.814 352.867 905.876 359.386 905.65C362.958 905.526 366.537 905.546 370.106 905.71C376.569 906.007 382.632 902.08 384.38 895.851L404.438 824.35Z" fill="url(#paint0_linear_4_82)"/>
<path d="M404.438 734.35C406.574 726.734 401.47 718.973 393.589 718.285C375.061 716.669 356.318 716.577 337.758 718.01C329.926 718.615 324.745 726.228 326.706 733.834L341.881 792.698C343.509 799.014 349.565 803.088 356.08 802.766C361.945 802.476 367.835 802.509 373.693 802.863C380.151 803.254 386.213 799.316 387.961 793.086L404.438 734.35Z" fill="url(#paint1_linear_4_82)"/>
<path d="M385.103 913.558C386.124 906.137 380.677 899.365 373.19 899.139C368.488 898.997 363.781 898.964 359.077 899.04C351.647 899.16 346.118 905.756 346.937 913.141L355.056 986.351C355.609 991.339 359.983 994.98 365.002 995.018V995.018C369.979 995.057 374.378 991.543 375.056 986.612L385.103 913.558Z" fill="#170F49"/>
<path d="M391.189 1069.04C392.306 1076.46 386.933 1083.3 379.442 1083.65C370.244 1084.07 361.023 1084.11 351.819 1083.78C344.361 1083.51 338.929 1076.78 339.914 1069.38L349.199 999.651C350.11 992.812 356.208 987.929 363.108 987.965C364.301 987.971 365.495 987.965 366.689 987.946C373.552 987.839 379.678 992.608 380.7 999.396L391.189 1069.04Z" fill="#170F49"/>
<path d="M453.154 1181.09C457.701 1187.81 455.046 1197.03 447.409 1199.77C422.057 1208.89 394.605 1213.74 366.733 1213.99C338.816 1214.24 311.194 1209.85 285.565 1201.16C277.905 1198.56 275.063 1189.44 279.43 1182.63L339.741 1088.6C343.144 1083.3 349.86 1081.38 356.076 1082.43C358.984 1082.92 361.959 1083.15 364.951 1083.13C367.953 1083.1 370.931 1082.81 373.834 1082.26C380.004 1081.1 386.728 1082.87 390.245 1088.07L453.154 1181.09Z" fill="#170F49"/>
<path d="M211.581 326.277C206.161 319.406 208.944 309.255 217.236 306.458C263.559 290.835 314.447 282.787 366.033 283.004C417.575 283.221 468.278 291.682 514.297 307.668C522.585 310.547 525.258 320.762 519.729 327.575L391.693 485.37C388.112 489.783 382.097 491.22 376.534 490.061C372.567 489.234 368.437 488.8 364.264 488.783C360.098 488.765 355.967 489.162 351.992 489.953C346.399 491.066 340.377 489.552 336.845 485.075L211.581 326.277Z" fill="#D9D9D9"/>
<path d="M317.601 124.339C314.808 132.094 319.847 140.467 328.051 141.264C352.591 143.648 377.579 143.576 402.083 141.05C410.326 140.201 415.309 131.721 412.388 123.966L382.84 45.5194C380.683 39.7912 374.82 36.4303 368.706 36.7054C365.815 36.8354 362.913 36.8455 360.02 36.7355C353.863 36.5014 347.992 39.9501 345.905 45.7467L317.601 124.339Z" fill="#D9D9D9"/>
<path d="M217.092 301.732C212.391 308.181 214.552 317.32 221.816 320.625C265.673 340.581 314.854 351.056 364.903 351C414.947 350.943 464.09 340.359 507.881 320.307C515.139 316.984 517.276 307.836 512.555 301.398L432.247 191.884C428.461 186.721 421.503 185.152 415.577 187.575C399.757 194.044 382.352 197.444 364.657 197.463C346.962 197.483 329.546 194.124 313.706 187.69C307.772 185.281 300.816 186.869 297.043 192.045L217.092 301.732Z" fill="#D9D9D9"/>
<path d="M351.53 1190.27C350.13 1190.27 348.83 1190.04 347.63 1189.57C346.464 1189.1 345.53 1188.35 344.83 1187.32C344.13 1186.29 343.78 1184.95 343.78 1183.32C343.78 1182.55 343.88 1181.7 344.08 1180.77C344.314 1179.84 344.697 1179.09 345.23 1178.52L345.83 1178.72C344.064 1179.69 342.747 1180.85 341.88 1182.22C341.014 1183.59 340.58 1185.1 340.58 1186.77C340.58 1187.97 340.747 1189.04 341.08 1189.97C341.414 1190.87 341.897 1191.65 342.53 1192.32C343.197 1193.02 343.98 1193.59 344.88 1194.02C345.814 1194.49 346.93 1194.82 348.23 1195.02C349.564 1195.22 351.164 1195.32 353.03 1195.32H357.03V1198.87H352.73C350.997 1198.87 349.63 1198.8 348.63 1198.67C347.63 1198.54 346.764 1198.37 346.03 1198.17C343.664 1197.5 341.78 1196.6 340.38 1195.47C339.014 1194.37 338.03 1193.1 337.43 1191.67C336.83 1190.24 336.53 1188.74 336.53 1187.17C336.53 1185.54 336.847 1184 337.48 1182.57C338.147 1181.14 339.08 1179.82 340.28 1178.62C341.514 1177.42 342.947 1176.4 344.58 1175.57L348.63 1177.52C348.23 1178.35 347.914 1179.15 347.68 1179.92C347.48 1180.65 347.38 1181.49 347.38 1182.42C347.38 1183.59 347.647 1184.6 348.18 1185.47C348.747 1186.3 349.847 1186.72 351.48 1186.72C352.414 1186.72 353.18 1186.49 353.78 1186.02C354.38 1185.52 354.83 1184.85 355.13 1184.02C355.464 1183.19 355.63 1182.25 355.63 1181.22C355.63 1178.65 354.914 1176.45 353.48 1174.62C352.047 1172.79 350.03 1171.39 347.43 1170.42C344.864 1169.45 341.847 1168.97 338.38 1168.97C335.314 1168.97 332.58 1169.25 330.18 1169.82C327.78 1170.35 325.764 1171.15 324.13 1172.22C322.53 1173.29 321.33 1174.59 320.53 1176.12L319.98 1178.22C319.947 1178.55 319.897 1178.87 319.83 1179.17C319.797 1179.47 319.78 1179.77 319.78 1180.07C319.78 1181.57 320.014 1182.84 320.48 1183.87C320.947 1184.87 321.58 1185.62 322.38 1186.12C323.214 1186.62 324.147 1186.87 325.18 1186.87C326.347 1186.87 327.28 1186.49 327.98 1185.72C328.68 1184.95 329.03 1183.85 329.03 1182.42C329.03 1180.95 328.63 1179.84 327.83 1179.07C327.064 1178.27 326.03 1177.87 324.73 1177.87C323.797 1177.87 322.88 1178.1 321.98 1178.57C321.08 1179 320.247 1179.6 319.48 1180.37L320.38 1176.07C321.147 1175.5 321.997 1175.09 322.93 1174.82C323.897 1174.52 324.83 1174.37 325.73 1174.37C327.197 1174.37 328.48 1174.67 329.58 1175.27C330.714 1175.87 331.58 1176.74 332.18 1177.87C332.814 1179 333.13 1180.39 333.13 1182.02C333.13 1183.72 332.797 1185.19 332.13 1186.42C331.497 1187.65 330.564 1188.6 329.33 1189.27C328.13 1189.94 326.664 1190.27 324.93 1190.27C323.364 1190.27 321.88 1189.89 320.48 1189.12C319.08 1188.32 317.947 1187.17 317.08 1185.67C316.247 1184.14 315.83 1182.25 315.83 1180.02C315.83 1177.82 316.314 1175.85 317.28 1174.12C318.28 1172.39 319.564 1170.92 321.13 1169.72C322.63 1168.59 324.247 1167.69 325.98 1167.02C327.747 1166.35 329.647 1165.89 331.68 1165.62C333.747 1165.32 335.964 1165.17 338.33 1165.17C342.564 1165.17 346.18 1165.75 349.18 1166.92C352.214 1168.05 354.664 1169.65 356.53 1171.72C357.697 1172.95 358.547 1174.37 359.08 1175.97C359.614 1177.54 359.88 1179.1 359.88 1180.67C359.88 1181.77 359.747 1182.89 359.48 1184.02C359.247 1185.15 358.814 1186.2 358.18 1187.17C357.547 1188.1 356.697 1188.85 355.63 1189.42C354.564 1189.99 353.197 1190.27 351.53 1190.27ZM333.68 1209.52C331.88 1209.52 330.214 1209.2 328.68 1208.57C327.147 1207.97 325.914 1207.02 324.98 1205.72C324.08 1204.42 323.63 1202.75 323.63 1200.72C323.63 1199.39 323.864 1198 324.33 1196.57C324.83 1195.14 325.597 1193.79 326.63 1192.52L330.33 1194.32C329.497 1195.55 328.897 1196.65 328.53 1197.62C328.164 1198.59 327.98 1199.6 327.98 1200.67C327.98 1202.04 328.264 1203.1 328.83 1203.87C329.43 1204.64 330.18 1205.15 331.08 1205.42C332.014 1205.72 332.997 1205.87 334.03 1205.87C335.53 1205.87 336.797 1205.6 337.83 1205.07C338.897 1204.57 339.83 1203.85 340.63 1202.92C341.43 1202.02 342.18 1201 342.88 1199.87C343.18 1199.3 343.564 1198.69 344.03 1198.02C344.497 1197.39 344.847 1196.94 345.08 1196.67L348.88 1198.22C348.547 1198.55 348.197 1199 347.83 1199.57C347.464 1200.17 347.164 1200.69 346.93 1201.12C346.03 1202.89 344.98 1204.4 343.78 1205.67C342.614 1206.94 341.214 1207.89 339.58 1208.52C337.947 1209.19 335.98 1209.52 333.68 1209.52ZM374.73 1194.07C372.964 1194.07 371.347 1193.64 369.88 1192.77C368.414 1191.87 367.247 1190.49 366.38 1188.62C365.547 1186.75 365.13 1184.32 365.13 1181.32C365.13 1178.59 365.53 1176.22 366.33 1174.22C367.164 1172.19 368.297 1170.5 369.73 1169.17C371.164 1167.84 372.78 1166.84 374.58 1166.17C376.38 1165.5 378.247 1165.17 380.18 1165.17C381.647 1165.17 382.964 1165.32 384.13 1165.62C385.297 1165.89 386.364 1166.29 387.33 1166.82C388.297 1167.32 389.197 1167.92 390.03 1168.62L389.38 1173.42C388.214 1171.95 386.88 1170.84 385.38 1170.07C383.914 1169.27 382.13 1168.87 380.03 1168.87C377.797 1168.87 375.864 1169.44 374.23 1170.57C372.597 1171.67 371.33 1173.19 370.43 1175.12C369.53 1177.02 369.08 1179.19 369.08 1181.62C369.08 1183.85 369.33 1185.64 369.83 1186.97C370.364 1188.27 371.064 1189.22 371.93 1189.82C372.83 1190.39 373.83 1190.67 374.93 1190.67C375.83 1190.67 376.597 1190.49 377.23 1190.12C377.897 1189.72 378.397 1189.15 378.73 1188.42C379.097 1187.69 379.28 1186.79 379.28 1185.72C379.28 1184.05 378.847 1182.79 377.98 1181.92C377.114 1181.02 375.997 1180.57 374.63 1180.57C373.297 1180.57 372.047 1180.92 370.88 1181.62C369.714 1182.32 368.647 1183.2 367.68 1184.27L366.93 1181.07C367.93 1179.9 369.164 1178.95 370.63 1178.22C372.13 1177.45 373.697 1177.07 375.33 1177.07C377.73 1177.07 379.664 1177.8 381.13 1179.27C382.63 1180.74 383.38 1182.72 383.38 1185.22C383.38 1187.05 383.03 1188.64 382.33 1189.97C381.63 1191.3 380.63 1192.32 379.33 1193.02C378.064 1193.72 376.53 1194.07 374.73 1194.07ZM389.13 1193.47V1172.67L389.73 1168.77V1165.77H414.93V1169.37H406.43V1193.47H402.13V1169.37H393.43V1193.47H389.13Z" fill="#7620E3"/>
<path d="M352.523 107.2C349.289 107.2 346.589 106.8 344.423 106C342.256 105.233 340.623 104.15 339.523 102.75C338.456 101.383 337.923 99.8 337.923 98C337.923 97.1667 338.106 96.35 338.473 95.55C338.839 94.75 339.406 94.0833 340.173 93.55C340.606 93.25 341.073 93 341.573 92.8C342.073 92.6 342.723 92.45 343.523 92.35C344.356 92.25 345.439 92.2 346.773 92.2H384.123L384.273 95.8H347.323C346.289 95.8 345.489 95.8167 344.923 95.85C344.389 95.8833 343.989 95.95 343.723 96.05C343.456 96.15 343.189 96.3 342.923 96.5C342.423 96.9 342.173 97.4667 342.173 98.2C342.173 99.8333 343.056 101.133 344.823 102.1C346.589 103.067 349.256 103.55 352.823 103.55H353.673C357.039 103.55 359.923 103.15 362.323 102.35C364.756 101.583 366.756 100.517 368.323 99.15C369.923 97.7833 371.123 96.2333 371.923 94.5L372.123 93.55C372.423 92.7167 372.639 91.8833 372.773 91.05C372.906 90.1833 372.973 89.3167 372.973 88.45C372.973 86.5167 372.639 84.6833 371.973 82.95C371.306 81.2167 370.273 79.7667 368.873 78.6C367.506 77.4 365.739 76.6333 363.573 76.3C363.139 76.2333 362.723 76.2 362.323 76.2C361.956 76.1667 361.556 76.15 361.123 76.15C360.089 76.15 359.139 76.3333 358.273 76.7C357.406 77.0667 356.706 77.6167 356.173 78.35C355.673 79.0833 355.423 80.0167 355.423 81.15C355.423 82.3833 355.789 83.4333 356.523 84.3C357.289 85.1333 358.356 85.55 359.723 85.55C360.989 85.55 361.989 85.1667 362.723 84.4C363.489 83.6 363.873 82.4667 363.873 81C363.873 79.9 363.689 78.9167 363.323 78.05C362.989 77.15 362.389 76.3 361.523 75.5L364.373 74.65C364.973 75.15 365.523 75.7333 366.023 76.4C366.556 77.0667 366.973 77.8167 367.273 78.65C367.606 79.45 367.773 80.3 367.773 81.2C367.773 82.3667 367.589 83.4333 367.223 84.4C366.889 85.3333 366.373 86.15 365.673 86.85C364.973 87.5167 364.106 88.0333 363.073 88.4C362.073 88.7667 360.923 88.95 359.623 88.95C358.123 88.95 356.756 88.6667 355.523 88.1C354.289 87.5333 353.306 86.6833 352.573 85.55C351.839 84.4167 351.473 83.0167 351.473 81.35C351.473 79.2833 351.956 77.6167 352.923 76.35C353.889 75.0833 355.139 74.1667 356.673 73.6C358.239 73 359.889 72.7 361.623 72.7C364.189 72.7 366.439 73.1333 368.373 74C370.339 74.8667 371.973 76.05 373.273 77.55C374.606 79.05 375.606 80.7333 376.273 82.6C376.939 84.4667 377.273 86.4 377.273 88.4C377.273 89.3 377.223 90.1833 377.123 91.05C377.023 91.8833 376.873 92.7 376.673 93.5L376.373 94.6C375.439 97.3333 373.873 99.6333 371.673 101.5C369.506 103.367 366.873 104.783 363.773 105.75C360.706 106.717 357.306 107.2 353.573 107.2H352.523ZM383.823 108.7V73.3H388.123V108.7H383.823Z" fill="#7620E3"/>
<path d="M347.713 206.516C344.48 206.516 341.78 206.116 339.613 205.316C337.446 204.549 335.813 203.466 334.713 202.066C333.646 200.699 333.113 199.116 333.113 197.316C333.113 196.482 333.296 195.666 333.663 194.866C334.03 194.066 334.596 193.399 335.363 192.866C335.796 192.566 336.263 192.316 336.763 192.116C337.263 191.916 337.913 191.766 338.713 191.666C339.546 191.566 340.63 191.516 341.963 191.516H379.313L379.463 195.116H342.513C341.48 195.116 340.68 195.132 340.113 195.166C339.58 195.199 339.18 195.266 338.913 195.366C338.646 195.466 338.38 195.616 338.113 195.816C337.613 196.216 337.363 196.782 337.363 197.516C337.363 199.149 338.246 200.449 340.013 201.416C341.78 202.382 344.446 202.866 348.013 202.866H348.863C352.23 202.866 355.113 202.466 357.513 201.666C359.946 200.899 361.946 199.832 363.513 198.466C365.113 197.099 366.313 195.549 367.113 193.816L367.313 192.866C367.613 192.032 367.83 191.199 367.963 190.366C368.096 189.499 368.163 188.632 368.163 187.766C368.163 185.832 367.83 183.999 367.163 182.266C366.496 180.532 365.463 179.082 364.063 177.916C362.696 176.716 360.93 175.949 358.763 175.616C358.33 175.549 357.913 175.516 357.513 175.516C357.146 175.482 356.746 175.466 356.313 175.466C355.28 175.466 354.33 175.649 353.463 176.016C352.596 176.382 351.896 176.932 351.363 177.666C350.863 178.399 350.613 179.332 350.613 180.466C350.613 181.699 350.98 182.749 351.713 183.616C352.48 184.449 353.546 184.866 354.913 184.866C356.18 184.866 357.18 184.482 357.913 183.716C358.68 182.916 359.063 181.782 359.063 180.316C359.063 179.216 358.88 178.232 358.513 177.366C358.18 176.466 357.58 175.616 356.713 174.816L359.563 173.966C360.163 174.466 360.713 175.049 361.213 175.716C361.746 176.382 362.163 177.132 362.463 177.966C362.796 178.766 362.963 179.616 362.963 180.516C362.963 181.682 362.78 182.749 362.413 183.716C362.08 184.649 361.563 185.466 360.863 186.166C360.163 186.832 359.296 187.349 358.263 187.716C357.263 188.082 356.113 188.266 354.813 188.266C353.313 188.266 351.946 187.982 350.713 187.416C349.48 186.849 348.496 185.999 347.763 184.866C347.03 183.732 346.663 182.332 346.663 180.666C346.663 178.599 347.146 176.932 348.113 175.666C349.08 174.399 350.33 173.482 351.863 172.916C353.43 172.316 355.08 172.016 356.813 172.016C359.38 172.016 361.63 172.449 363.563 173.316C365.53 174.182 367.163 175.366 368.463 176.866C369.796 178.366 370.796 180.049 371.463 181.916C372.13 183.782 372.463 185.716 372.463 187.716C372.463 188.616 372.413 189.499 372.313 190.366C372.213 191.199 372.063 192.016 371.863 192.816L371.563 193.916C370.63 196.649 369.063 198.949 366.863 200.816C364.696 202.682 362.063 204.099 358.963 205.066C355.896 206.032 352.496 206.516 348.763 206.516H347.713ZM377.763 216.366C373.43 216.366 370.063 215.632 367.663 214.166C365.263 212.732 364.063 210.682 364.063 208.016C364.063 207.049 364.296 206.132 364.763 205.266C365.263 204.432 366.013 203.732 367.013 203.166C368.046 202.632 369.33 202.366 370.863 202.366C371.73 202.366 372.63 202.449 373.563 202.616C374.496 202.816 375.38 203.082 376.213 203.416L375.513 206.666C374.78 206.432 374.03 206.232 373.263 206.066C372.53 205.899 371.83 205.816 371.163 205.816C370.13 205.816 369.33 206.016 368.763 206.416C368.196 206.816 367.913 207.399 367.913 208.166C367.913 208.966 368.213 209.716 368.813 210.416C369.446 211.116 370.496 211.682 371.963 212.116C373.43 212.549 375.43 212.766 377.963 212.766H378.313C381.18 212.766 383.696 212.399 385.863 211.666C388.063 210.966 389.78 209.916 391.013 208.516C392.28 207.116 392.913 205.432 392.913 203.466C392.913 201.999 392.496 200.849 391.663 200.016C390.83 199.182 389.68 198.766 388.213 198.766C387.146 198.766 386.196 198.916 385.363 199.216C384.563 199.482 383.88 199.832 383.313 200.266V196.816C383.98 196.416 384.763 196.066 385.663 195.766C386.563 195.466 387.646 195.316 388.913 195.316C390.28 195.316 391.58 195.616 392.813 196.216C394.08 196.816 395.113 197.732 395.913 198.966C396.713 200.166 397.113 201.699 397.113 203.566C397.113 206.099 396.346 208.332 394.813 210.266C393.28 212.199 391.08 213.699 388.213 214.766C385.38 215.832 381.996 216.366 378.063 216.366H377.763ZM379.013 206.516V172.616H383.313V206.516H379.013Z" fill="#7620E3"/>
<path d="M349.151 315.681C346.984 315.681 345.117 315.298 343.551 314.531C342.017 313.798 340.834 312.731 340.001 311.331C339.201 309.931 338.801 308.264 338.801 306.331C338.801 303.964 339.401 301.881 340.601 300.081C341.834 298.281 343.467 296.781 345.501 295.581C347.467 294.414 349.734 293.548 352.301 292.981C354.867 292.381 357.534 292.081 360.301 292.081C362.967 292.081 365.384 292.314 367.551 292.781C369.751 293.214 371.684 293.831 373.351 294.631C375.251 295.531 376.834 296.614 378.101 297.881C379.367 299.114 380.301 300.448 380.901 301.881C381.534 303.348 381.851 304.831 381.851 306.331C381.851 309.231 380.934 311.514 379.101 313.181C377.301 314.848 374.684 315.681 371.251 315.681C368.917 315.681 366.634 315.348 364.401 314.681C362.201 314.048 360.067 313.081 358.001 311.781C356.267 310.948 354.584 309.814 352.951 308.381C351.317 306.948 349.801 305.331 348.401 303.531C347.034 301.764 345.867 299.964 344.901 298.131C343.367 295.364 342.184 292.581 341.351 289.781C340.551 286.948 340.151 283.914 340.151 280.681C340.151 277.781 340.634 274.948 341.601 272.181C342.601 269.414 344.101 266.931 346.101 264.731C348.134 262.531 350.684 260.781 353.751 259.481C356.851 258.148 360.501 257.481 364.701 257.481C368.801 257.481 372.317 258.048 375.251 259.181C378.217 260.314 380.667 262.014 382.601 264.281C383.867 265.781 384.917 267.448 385.751 269.281C386.584 271.114 387.201 273.198 387.601 275.531C388.034 277.831 388.251 280.498 388.251 283.531V299.631H383.951V286.031C383.951 282.831 383.767 279.981 383.401 277.481C383.034 274.981 382.451 272.798 381.651 270.931C380.851 269.031 379.801 267.414 378.501 266.081C376.934 264.448 375.034 263.231 372.801 262.431C370.567 261.631 367.867 261.231 364.701 261.231C361.901 261.231 359.267 261.664 356.801 262.531C354.367 263.364 352.217 264.614 350.351 266.281C348.517 267.948 347.067 269.998 346.001 272.431C344.967 274.864 344.451 277.681 344.451 280.881C344.451 282.948 344.601 284.848 344.901 286.581C345.201 288.281 345.651 289.914 346.251 291.481C346.851 293.048 347.567 294.648 348.401 296.281C349.167 297.914 350.201 299.581 351.501 301.281C352.801 302.981 354.317 304.581 356.051 306.081C357.784 307.581 359.651 308.864 361.651 309.931C363.084 310.731 364.534 311.281 366.001 311.581C367.501 311.914 369.101 312.081 370.801 312.081C373.267 312.081 375.001 311.514 376.001 310.381C377.034 309.281 377.551 307.848 377.551 306.081C377.551 304.381 377.034 302.831 376.001 301.431C374.967 300.031 373.634 298.914 372.001 298.081C370.401 297.248 368.584 296.648 366.551 296.281C364.551 295.881 362.501 295.681 360.401 295.681C357.467 295.681 354.901 295.981 352.701 296.581C350.534 297.148 348.751 297.898 347.351 298.831C345.884 299.798 344.801 300.898 344.101 302.131C343.401 303.398 343.051 304.698 343.051 306.031C343.051 307.864 343.567 309.331 344.601 310.431C345.667 311.531 347.384 312.081 349.751 312.081C351.217 312.081 352.617 311.964 353.951 311.731C355.284 311.531 356.601 311.064 357.901 310.331C359.967 309.398 361.867 308.131 363.601 306.531C365.334 304.931 366.817 303.164 368.051 301.231C369.317 299.298 370.217 297.381 370.751 295.481C371.217 294.114 371.551 292.748 371.751 291.381C371.984 289.981 372.101 288.564 372.101 287.131C372.101 284.731 371.767 282.714 371.101 281.081C370.467 279.414 369.634 278.098 368.601 277.131C367.567 276.164 366.484 275.498 365.351 275.131L362.851 274.881C362.617 274.848 362.334 274.831 362.001 274.831C361.701 274.798 361.401 274.781 361.101 274.781C359.901 274.781 358.817 274.964 357.851 275.331C356.917 275.664 356.167 276.198 355.601 276.931C355.034 277.664 354.751 278.581 354.751 279.681C354.751 280.914 355.117 281.948 355.851 282.781C356.617 283.614 357.684 284.031 359.051 284.031C360.284 284.031 361.284 283.648 362.051 282.881C362.817 282.081 363.201 280.964 363.201 279.531C363.201 278.464 363.001 277.481 362.601 276.581C362.201 275.681 361.567 274.781 360.701 273.881L364.701 274.131C365.167 274.598 365.567 275.148 365.901 275.781C366.267 276.381 366.551 277.048 366.751 277.781C366.984 278.481 367.101 279.231 367.101 280.031C367.101 281.464 366.784 282.748 366.151 283.881C365.517 284.981 364.601 285.848 363.401 286.481C362.201 287.114 360.717 287.431 358.951 287.431C357.451 287.431 356.084 287.114 354.851 286.481C353.617 285.848 352.634 284.948 351.901 283.781C351.167 282.614 350.801 281.264 350.801 279.731C350.801 277.831 351.284 276.264 352.251 275.031C353.251 273.764 354.601 272.831 356.301 272.231C358.001 271.631 359.901 271.331 362.001 271.331C365.201 271.331 367.867 271.981 370.001 273.281C372.134 274.581 373.734 276.398 374.801 278.731C375.901 281.064 376.451 283.798 376.451 286.931C376.451 288.398 376.301 290.114 376.001 292.081C375.701 294.048 375.134 295.981 374.301 297.881C373.567 299.914 372.601 301.814 371.401 303.581C370.234 305.348 368.884 306.948 367.351 308.381C365.817 309.814 364.151 311.048 362.351 312.081C360.217 313.214 358.051 314.098 355.851 314.731C353.651 315.364 351.417 315.681 349.151 315.681Z" fill="#7620E3"/>
<path d="M351.224 398.947V371.247H380.924V374.847H370.974V398.947H366.674V374.847H355.524V398.947H351.224ZM361.124 388.247C360.224 388.247 359.458 387.947 358.824 387.347C358.224 386.747 357.924 385.98 357.924 385.047C357.924 384.147 358.224 383.397 358.824 382.797C359.424 382.197 360.191 381.897 361.124 381.897C362.024 381.897 362.774 382.197 363.374 382.797C363.974 383.397 364.274 384.147 364.274 385.047C364.274 385.98 363.974 386.747 363.374 387.347C362.774 387.947 362.024 388.247 361.124 388.247ZM376.524 388.247C375.624 388.247 374.858 387.947 374.224 387.347C373.624 386.747 373.324 385.98 373.324 385.047C373.324 384.147 373.624 383.397 374.224 382.797C374.824 382.197 375.591 381.897 376.524 381.897C377.424 381.897 378.174 382.197 378.774 382.797C379.374 383.397 379.674 384.147 379.674 385.047C379.674 385.98 379.374 386.747 378.774 387.347C378.174 387.947 377.424 388.247 376.524 388.247Z" fill="#7620E3"/>
<path d="M352.715 469.962C356.282 469.962 359.182 470.462 361.415 471.462C363.649 472.429 365.282 473.746 366.315 475.412C367.382 477.046 367.915 478.846 367.915 480.812C367.915 482.746 367.565 484.362 366.865 485.662C366.165 486.929 365.165 487.962 363.865 488.762C362.565 489.529 361.015 490.129 359.215 490.562C357.415 490.962 355.432 491.279 353.265 491.512L349.265 491.912C347.432 492.079 346.282 492.279 345.815 492.512C345.349 492.746 345.115 493.079 345.115 493.512C345.115 493.912 345.249 494.212 345.515 494.412C345.815 494.579 346.282 494.662 346.915 494.662H390.315V498.262H347.365C345.799 498.262 344.532 498.062 343.565 497.662C342.632 497.229 341.949 496.662 341.515 495.962C341.115 495.229 340.915 494.429 340.915 493.562C340.915 492.562 341.182 491.712 341.715 491.012C342.249 490.312 343.115 489.746 344.315 489.312C345.515 488.879 347.115 488.562 349.115 488.362L352.965 488.012C355.999 487.712 358.265 487.212 359.765 486.512C361.299 485.779 362.315 484.912 362.815 483.912C363.349 482.912 363.615 481.879 363.615 480.812C363.615 479.412 363.249 478.179 362.515 477.112C361.815 476.046 360.765 475.196 359.365 474.562C357.999 473.896 356.315 473.529 354.315 473.462L352.915 473.412C352.549 473.412 352.165 473.412 351.765 473.412C351.399 473.412 351.132 473.412 350.965 473.412C349.165 473.412 347.649 473.812 346.415 474.612C345.215 475.412 344.615 476.646 344.615 478.312C344.615 479.546 344.965 480.579 345.665 481.412C346.365 482.246 347.449 482.662 348.915 482.662C350.182 482.662 351.182 482.279 351.915 481.512C352.682 480.712 353.065 479.596 353.065 478.162C353.065 477.196 352.882 476.262 352.515 475.362C352.182 474.429 351.582 473.562 350.715 472.762L353.715 471.912C354.315 472.379 354.849 472.962 355.315 473.662C355.815 474.329 356.215 475.079 356.515 475.912C356.815 476.746 356.965 477.662 356.965 478.662C356.965 480.829 356.265 482.612 354.865 484.012C353.499 485.379 351.482 486.062 348.815 486.062C347.215 486.062 345.799 485.746 344.565 485.112C343.365 484.479 342.415 483.579 341.715 482.412C341.015 481.246 340.665 479.896 340.665 478.362C340.665 476.462 341.182 474.896 342.215 473.662C343.249 472.396 344.665 471.462 346.465 470.862C348.299 470.262 350.382 469.962 352.715 469.962Z" fill="#7620E3"/>
<path d="M340.899 569.278C344.466 569.278 347.366 569.778 349.599 570.778C351.832 571.745 353.466 573.061 354.499 574.728C355.566 576.361 356.099 578.161 356.099 580.128C356.099 582.061 355.749 583.678 355.049 584.978C354.349 586.245 353.349 587.278 352.049 588.078C350.749 588.845 349.199 589.445 347.399 589.878C345.599 590.278 343.616 590.595 341.449 590.828L337.449 591.228C336.249 591.328 335.349 591.461 334.749 591.628C334.182 591.761 333.799 591.928 333.599 592.128C333.432 592.295 333.349 592.528 333.349 592.828C333.349 593.228 333.482 593.528 333.749 593.728C334.016 593.895 334.466 593.978 335.099 593.978H400.699V597.578H335.549C333.982 597.578 332.716 597.378 331.749 596.978C330.816 596.545 330.132 595.978 329.699 595.278C329.299 594.545 329.099 593.745 329.099 592.878C329.099 591.878 329.366 591.028 329.899 590.328C330.432 589.628 331.299 589.061 332.499 588.628C333.699 588.195 335.299 587.878 337.299 587.678L340.899 587.328C343.232 587.095 345.116 586.745 346.549 586.278C347.982 585.811 349.082 585.261 349.849 584.628C350.616 583.961 351.132 583.245 351.399 582.478C351.666 581.711 351.799 580.928 351.799 580.128C351.799 578.728 351.432 577.495 350.699 576.428C349.999 575.361 348.949 574.511 347.549 573.878C346.182 573.211 344.499 572.845 342.499 572.778L341.099 572.728C340.732 572.728 340.349 572.728 339.949 572.728C339.582 572.728 339.316 572.728 339.149 572.728C337.349 572.728 335.832 573.128 334.599 573.928C333.399 574.728 332.799 575.961 332.799 577.628C332.799 578.861 333.166 579.895 333.899 580.728C334.666 581.561 335.732 581.978 337.099 581.978C338.332 581.978 339.332 581.595 340.099 580.828C340.866 580.028 341.249 578.911 341.249 577.478C341.249 576.511 341.066 575.578 340.699 574.678C340.366 573.745 339.766 572.878 338.899 572.078L341.899 571.228C342.499 571.695 343.032 572.278 343.499 572.978C343.999 573.645 344.399 574.395 344.699 575.228C344.999 576.061 345.149 576.978 345.149 577.978C345.149 580.145 344.449 581.928 343.049 583.328C341.649 584.695 339.632 585.378 336.999 585.378C335.499 585.378 334.132 585.061 332.899 584.428C331.666 583.795 330.682 582.895 329.949 581.728C329.216 580.561 328.849 579.211 328.849 577.678C328.849 575.778 329.366 574.211 330.399 572.978C331.432 571.711 332.849 570.778 334.649 570.178C336.482 569.578 338.566 569.278 340.899 569.278ZM368.899 590.978C367.466 590.978 366.116 590.645 364.849 589.978C363.616 589.311 362.616 588.261 361.849 586.828C361.116 585.395 360.749 583.561 360.749 581.328C360.749 578.528 361.316 576.245 362.449 574.478C363.582 572.711 365.049 571.411 366.849 570.578C368.649 569.711 370.549 569.278 372.549 569.278C374.416 569.278 375.999 569.528 377.299 570.028C378.599 570.528 379.766 571.178 380.799 571.978L380.099 576.428C379.232 575.361 378.249 574.495 377.149 573.828C376.082 573.128 374.649 572.778 372.849 572.778C371.249 572.778 369.849 573.095 368.649 573.728C367.449 574.361 366.482 575.245 365.749 576.378C365.049 577.478 364.632 578.778 364.499 580.278L364.449 581.528C364.449 583.061 364.632 584.295 364.999 585.228C365.399 586.128 365.932 586.778 366.599 587.178C367.266 587.578 368.032 587.778 368.899 587.778C369.532 587.778 370.082 587.645 370.549 587.378C371.016 587.111 371.382 586.728 371.649 586.228C371.949 585.728 372.099 585.128 372.099 584.428C372.099 583.328 371.766 582.478 371.099 581.878C370.432 581.245 369.566 580.928 368.499 580.928C367.532 580.928 366.616 581.261 365.749 581.928C364.882 582.561 364.066 583.461 363.299 584.628L362.549 581.728C363.349 580.528 364.349 579.561 365.549 578.828C366.749 578.061 368.016 577.678 369.349 577.678C371.316 577.678 372.882 578.261 374.049 579.428C375.249 580.595 375.849 582.145 375.849 584.078C375.849 586.211 375.232 587.895 373.999 589.128C372.766 590.361 371.066 590.978 368.899 590.978ZM379.849 590.378V574.228L380.499 572.728V569.878H400.699V573.278H394.799V590.378H390.699V573.278H383.949V590.378H379.849Z" fill="#7620E3"/>
<path d="M356.93 697.494C355.164 697.494 353.547 697.06 352.08 696.194C350.614 695.327 349.447 693.977 348.58 692.144C347.747 690.277 347.33 687.877 347.33 684.944C347.33 682.377 347.747 680.144 348.58 678.244C349.414 676.344 350.547 674.76 351.98 673.494C353.047 672.527 354.264 671.727 355.63 671.094C356.997 670.46 358.614 669.994 360.48 669.694C362.347 669.36 364.53 669.194 367.03 669.194H369.88V672.794H366.43C364.297 672.794 362.514 672.927 361.08 673.194C359.647 673.427 358.464 673.76 357.53 674.194C356.63 674.627 355.847 675.144 355.18 675.744C353.914 676.877 352.947 678.244 352.28 679.844C351.614 681.444 351.28 683.26 351.28 685.294C351.28 687.427 351.53 689.144 352.03 690.444C352.564 691.744 353.264 692.677 354.13 693.244C355.03 693.81 356.03 694.094 357.13 694.094C358.03 694.094 358.797 693.91 359.43 693.544C360.097 693.144 360.597 692.577 360.93 691.844C361.297 691.11 361.48 690.21 361.48 689.144C361.48 687.477 361.047 686.21 360.18 685.344C359.314 684.444 358.197 683.994 356.83 683.994C355.497 683.994 354.247 684.344 353.08 685.044C351.914 685.744 350.847 686.627 349.88 687.694L349.13 684.494C350.13 683.327 351.364 682.377 352.83 681.644C354.33 680.877 355.897 680.494 357.53 680.494C359.93 680.494 361.864 681.227 363.33 682.694C364.83 684.16 365.58 686.144 365.58 688.644C365.58 690.477 365.23 692.06 364.53 693.394C363.83 694.727 362.83 695.744 361.53 696.444C360.264 697.144 358.73 697.494 356.93 697.494ZM370.88 696.894V672.794H369.08L369.18 669.194H383.68V672.794H375.18V696.894H370.88Z" fill="#7620E3"/>
<path d="M364.08 806.809L361.23 804.159L370.88 795.009V772.109H369.08L369.18 768.509H383.68V772.109H375.18V796.209L364.08 806.809ZM356.93 796.809C355.164 796.809 353.547 796.376 352.08 795.509C350.614 794.643 349.447 793.293 348.58 791.459C347.747 789.593 347.33 787.193 347.33 784.259C347.33 781.693 347.747 779.459 348.58 777.559C349.414 775.659 350.547 774.076 351.98 772.809C353.047 771.843 354.264 771.043 355.63 770.409C356.997 769.776 358.614 769.309 360.48 769.009C362.347 768.676 364.53 768.509 367.03 768.509H369.88V772.109H366.43C364.297 772.109 362.514 772.243 361.08 772.509C359.647 772.743 358.464 773.076 357.53 773.509C356.63 773.943 355.847 774.459 355.18 775.059C353.914 776.193 352.947 777.559 352.28 779.159C351.614 780.759 351.28 782.576 351.28 784.609C351.28 786.676 351.53 788.359 352.03 789.659C352.564 790.959 353.264 791.909 354.13 792.509C355.03 793.109 356.047 793.409 357.18 793.409C358.047 793.409 358.797 793.226 359.43 792.859C360.064 792.459 360.564 791.893 360.93 791.159C361.297 790.426 361.48 789.526 361.48 788.459C361.48 786.793 361.047 785.526 360.18 784.659C359.314 783.759 358.197 783.309 356.83 783.309C355.497 783.309 354.247 783.659 353.08 784.359C351.914 785.059 350.847 785.943 349.88 787.009L349.13 783.809C350.13 782.643 351.364 781.693 352.83 780.959C354.33 780.193 355.897 779.809 357.53 779.809C359.93 779.809 361.864 780.543 363.33 782.009C364.83 783.476 365.58 785.459 365.58 787.959C365.58 789.793 365.23 791.376 364.53 792.709C363.83 794.043 362.83 795.059 361.53 795.759C360.264 796.459 358.73 796.809 356.93 796.809Z" fill="#7620E3"/>
<path d="M355.838 911.575C352.772 911.575 350.222 911.058 348.188 910.025C346.155 908.991 344.622 907.608 343.588 905.875C342.588 904.175 342.088 902.308 342.088 900.275C342.088 898.441 342.388 896.858 342.988 895.525C343.622 894.225 344.455 893.141 345.488 892.275C346.655 891.308 348.022 890.575 349.588 890.075C351.155 889.575 352.872 889.241 354.738 889.075C356.605 888.875 358.538 888.775 360.538 888.775H364.988C367.522 888.775 369.755 888.691 371.688 888.525C373.622 888.325 375.288 888.008 376.688 887.575C378.088 887.141 379.222 886.525 380.088 885.725C380.922 884.958 381.522 884.008 381.888 882.875C382.288 881.741 382.488 880.391 382.488 878.825C382.488 877.058 382.172 875.591 381.538 874.425C380.905 873.258 380.038 872.375 378.938 871.775C377.838 871.175 376.605 870.875 375.238 870.875C374.272 870.875 373.405 871.025 372.638 871.325C371.905 871.591 371.255 872.041 370.688 872.675C370.055 873.441 369.605 874.341 369.338 875.375C369.072 876.375 368.938 877.775 368.938 879.575V885.275H364.588V880.675C364.588 879.175 364.438 877.825 364.138 876.625C363.838 875.391 363.338 874.341 362.638 873.475C361.972 872.575 361.072 871.891 359.938 871.425C358.838 870.958 357.455 870.725 355.788 870.725C354.755 870.725 353.955 870.775 353.388 870.875C352.822 870.941 352.205 871.091 351.538 871.325L349.788 872.025C348.888 872.491 348.155 873.058 347.588 873.725C347.055 874.358 346.655 875.058 346.388 875.825C346.155 876.558 346.038 877.325 346.038 878.125C346.038 879.558 346.388 880.725 347.088 881.625C347.822 882.491 349.005 882.925 350.638 882.925C351.938 882.925 352.988 882.558 353.788 881.825C354.622 881.091 355.038 880.075 355.038 878.775C355.038 877.608 354.722 876.608 354.088 875.775C353.488 874.908 352.638 874.258 351.538 873.825C350.472 873.358 349.238 873.125 347.838 873.125L351.038 870.825C352.572 870.958 353.938 871.358 355.138 872.025C356.372 872.658 357.338 873.525 358.038 874.625C358.772 875.691 359.138 876.958 359.138 878.425C359.138 880.825 358.355 882.741 356.788 884.175C355.255 885.608 353.222 886.325 350.688 886.325C348.822 886.325 347.238 885.975 345.938 885.275C344.672 884.541 343.705 883.575 343.038 882.375C342.405 881.141 342.088 879.775 342.088 878.275C342.088 875.941 342.705 873.958 343.938 872.325C345.172 870.658 346.805 869.391 348.838 868.525C350.905 867.658 353.122 867.225 355.488 867.225C357.922 867.225 359.888 867.541 361.388 868.175C362.922 868.808 364.105 869.608 364.938 870.575C365.805 871.541 366.455 872.541 366.888 873.575L365.988 874.025C366.488 872.591 367.155 871.375 367.988 870.375C368.855 869.341 369.905 868.558 371.138 868.025C372.372 867.491 373.788 867.225 375.388 867.225C377.888 867.225 379.988 867.725 381.688 868.725C383.388 869.691 384.672 871.041 385.538 872.775C386.438 874.508 386.888 876.508 386.888 878.775C386.888 881.008 386.555 882.908 385.888 884.475C385.222 886.041 384.288 887.341 383.088 888.375C381.822 889.475 380.288 890.308 378.488 890.875C376.722 891.441 374.772 891.841 372.638 892.075C370.538 892.275 368.338 892.375 366.038 892.375H361.338C359.138 892.375 357.188 892.441 355.488 892.575C353.822 892.708 352.388 892.975 351.188 893.375C350.022 893.775 349.055 894.358 348.288 895.125C347.655 895.758 347.188 896.491 346.888 897.325C346.622 898.158 346.488 899.108 346.488 900.175C346.488 901.975 346.905 903.441 347.738 904.575C348.605 905.708 349.755 906.541 351.188 907.075C352.622 907.641 354.205 907.925 355.938 907.925C357.338 907.925 358.555 907.775 359.588 907.475C360.655 907.208 361.555 906.758 362.288 906.125C363.155 905.358 363.755 904.458 364.088 903.425C364.422 902.391 364.588 900.975 364.588 899.175V896.075H368.938V897.875C368.938 899.208 369.022 900.425 369.188 901.525C369.355 902.625 369.638 903.591 370.038 904.425C370.605 905.558 371.388 906.425 372.388 907.025C373.422 907.625 374.755 907.925 376.388 907.925C377.455 907.925 378.455 907.691 379.388 907.225C380.322 906.791 381.072 906.058 381.638 905.025C382.238 903.991 382.538 902.575 382.538 900.775C382.538 899.841 382.422 898.791 382.188 897.625C381.955 896.458 381.655 895.491 381.288 894.725L385.538 893.275C385.972 894.408 386.305 895.558 386.538 896.725C386.772 897.891 386.888 899.291 386.888 900.925C386.888 903.225 386.422 905.158 385.488 906.725C384.588 908.325 383.338 909.525 381.738 910.325C380.172 911.158 378.405 911.575 376.438 911.575C374.272 911.575 372.505 911.241 371.138 910.575C369.805 909.908 368.755 909.075 367.988 908.075C367.255 907.075 366.705 906.075 366.338 905.075L367.238 904.875C366.705 906.308 365.905 907.525 364.838 908.525C363.772 909.525 362.472 910.275 360.938 910.775C359.438 911.308 357.738 911.575 355.838 911.575Z" fill="#7620E3"/>
<path d="M378.166 991.64C376.766 991.64 375.466 991.407 374.266 990.94C373.1 990.474 372.166 989.724 371.466 988.69C370.766 987.657 370.416 986.324 370.416 984.69C370.416 983.924 370.516 983.074 370.716 982.14C370.95 981.207 371.333 980.457 371.866 979.89L372.466 980.09C370.7 981.057 369.383 982.224 368.516 983.59C367.65 984.957 367.216 986.474 367.216 988.14C367.216 989.34 367.383 990.407 367.716 991.34C368.05 992.24 368.533 993.024 369.166 993.69C369.833 994.39 370.616 994.957 371.516 995.39C372.45 995.857 373.566 996.19 374.866 996.39C376.2 996.59 377.8 996.69 379.666 996.69H383.666V1000.24H379.366C377.633 1000.24 376.266 1000.17 375.266 1000.04C374.266 999.907 373.4 999.74 372.666 999.54C370.3 998.874 368.416 997.974 367.016 996.84C365.65 995.74 364.666 994.474 364.066 993.04C363.466 991.607 363.166 990.107 363.166 988.54C363.166 986.907 363.483 985.374 364.116 983.94C364.783 982.507 365.716 981.19 366.916 979.99C368.15 978.79 369.583 977.774 371.216 976.94L375.266 978.89C374.866 979.724 374.55 980.524 374.316 981.29C374.116 982.024 374.016 982.857 374.016 983.79C374.016 984.957 374.283 985.974 374.816 986.84C375.383 987.674 376.483 988.09 378.116 988.09C379.05 988.09 379.816 987.857 380.416 987.39C381.016 986.89 381.466 986.224 381.766 985.39C382.1 984.557 382.266 983.624 382.266 982.59C382.266 980.024 381.55 977.824 380.116 975.99C378.683 974.157 376.666 972.757 374.066 971.79C371.5 970.824 368.483 970.34 365.016 970.34C361.95 970.34 359.216 970.624 356.816 971.19C354.416 971.724 352.4 972.524 350.766 973.59C349.166 974.657 347.966 975.957 347.166 977.49L346.616 979.59C346.583 979.924 346.533 980.24 346.466 980.54C346.433 980.84 346.416 981.14 346.416 981.44C346.416 982.94 346.65 984.207 347.116 985.24C347.583 986.24 348.216 986.99 349.016 987.49C349.85 987.99 350.783 988.24 351.816 988.24C352.983 988.24 353.916 987.857 354.616 987.09C355.316 986.324 355.666 985.224 355.666 983.79C355.666 982.324 355.266 981.207 354.466 980.44C353.7 979.64 352.666 979.24 351.366 979.24C350.433 979.24 349.516 979.474 348.616 979.94C347.716 980.374 346.883 980.974 346.116 981.74L347.016 977.44C347.783 976.874 348.633 976.457 349.566 976.19C350.533 975.89 351.466 975.74 352.366 975.74C353.833 975.74 355.116 976.04 356.216 976.64C357.35 977.24 358.216 978.107 358.816 979.24C359.45 980.374 359.766 981.757 359.766 983.39C359.766 985.09 359.433 986.557 358.766 987.79C358.133 989.024 357.2 989.974 355.966 990.64C354.766 991.307 353.3 991.64 351.566 991.64C350 991.64 348.516 991.257 347.116 990.49C345.716 989.69 344.583 988.54 343.716 987.04C342.883 985.507 342.466 983.624 342.466 981.39C342.466 979.19 342.95 977.224 343.916 975.49C344.916 973.757 346.2 972.29 347.766 971.09C349.266 969.957 350.883 969.057 352.616 968.39C354.383 967.724 356.283 967.257 358.316 966.99C360.383 966.69 362.6 966.54 364.966 966.54C369.2 966.54 372.816 967.124 375.816 968.29C378.85 969.424 381.3 971.024 383.166 973.09C384.333 974.324 385.183 975.74 385.716 977.34C386.25 978.907 386.516 980.474 386.516 982.04C386.516 983.14 386.383 984.257 386.116 985.39C385.883 986.524 385.45 987.574 384.816 988.54C384.183 989.474 383.333 990.224 382.266 990.79C381.2 991.357 379.833 991.64 378.166 991.64ZM360.316 1010.89C358.516 1010.89 356.85 1010.57 355.316 1009.94C353.783 1009.34 352.55 1008.39 351.616 1007.09C350.716 1005.79 350.266 1004.12 350.266 1002.09C350.266 1000.76 350.5 999.374 350.966 997.94C351.466 996.507 352.233 995.157 353.266 993.89L356.966 995.69C356.133 996.924 355.533 998.024 355.166 998.99C354.8 999.957 354.616 1000.97 354.616 1002.04C354.616 1003.41 354.9 1004.47 355.466 1005.24C356.066 1006.01 356.816 1006.52 357.716 1006.79C358.65 1007.09 359.633 1007.24 360.666 1007.24C362.166 1007.24 363.433 1006.97 364.466 1006.44C365.533 1005.94 366.466 1005.22 367.266 1004.29C368.066 1003.39 368.816 1002.37 369.516 1001.24C369.816 1000.67 370.2 1000.06 370.666 999.39C371.133 998.757 371.483 998.307 371.716 998.04L375.516 999.59C375.183 999.924 374.833 1000.37 374.466 1000.94C374.1 1001.54 373.8 1002.06 373.566 1002.49C372.666 1004.26 371.616 1005.77 370.416 1007.04C369.25 1008.31 367.85 1009.26 366.216 1009.89C364.583 1010.56 362.616 1010.89 360.316 1010.89Z" fill="#7620E3"/>
<path d="M378.166 1090.96C376.766 1090.96 375.466 1090.72 374.266 1090.26C373.1 1089.79 372.166 1089.04 371.466 1088.01C370.766 1086.97 370.416 1085.64 370.416 1084.01C370.416 1083.24 370.516 1082.39 370.716 1081.46C370.95 1080.52 371.333 1079.77 371.866 1079.21L372.466 1079.41C370.7 1080.37 369.383 1081.54 368.516 1082.91C367.65 1084.27 367.216 1085.79 367.216 1087.46C367.216 1088.66 367.383 1089.72 367.716 1090.66C368.05 1091.56 368.533 1092.34 369.166 1093.01C369.833 1093.71 370.616 1094.27 371.516 1094.71C372.45 1095.17 373.566 1095.51 374.866 1095.71C376.2 1095.91 377.8 1096.01 379.666 1096.01H383.666V1099.56H379.366C377.633 1099.56 376.266 1099.49 375.266 1099.36C374.266 1099.22 373.4 1099.06 372.666 1098.86C370.3 1098.19 368.416 1097.29 367.016 1096.16C365.65 1095.06 364.666 1093.79 364.066 1092.36C363.466 1090.92 363.166 1089.42 363.166 1087.86C363.166 1086.22 363.483 1084.69 364.116 1083.26C364.783 1081.82 365.716 1080.51 366.916 1079.31C368.15 1078.11 369.583 1077.09 371.216 1076.26L375.266 1078.21C374.866 1079.04 374.55 1079.84 374.316 1080.61C374.116 1081.34 374.016 1082.17 374.016 1083.11C374.016 1084.27 374.283 1085.29 374.816 1086.16C375.383 1086.99 376.483 1087.41 378.116 1087.41C379.05 1087.41 379.816 1087.17 380.416 1086.71C381.016 1086.21 381.466 1085.54 381.766 1084.71C382.1 1083.87 382.266 1082.94 382.266 1081.91C382.266 1079.34 381.55 1077.14 380.116 1075.31C378.683 1073.47 376.666 1072.07 374.066 1071.11C371.5 1070.14 368.483 1069.66 365.016 1069.66C361.95 1069.66 359.216 1069.94 356.816 1070.51C354.416 1071.04 352.4 1071.84 350.766 1072.91C349.166 1073.97 347.966 1075.27 347.166 1076.81L346.616 1078.91C346.583 1079.24 346.533 1079.56 346.466 1079.86C346.433 1080.16 346.416 1080.46 346.416 1080.76C346.416 1082.26 346.65 1083.52 347.116 1084.56C347.583 1085.56 348.216 1086.31 349.016 1086.81C349.85 1087.31 350.783 1087.56 351.816 1087.56C352.983 1087.56 353.916 1087.17 354.616 1086.41C355.316 1085.64 355.666 1084.54 355.666 1083.11C355.666 1081.64 355.266 1080.52 354.466 1079.76C353.7 1078.96 352.666 1078.56 351.366 1078.56C350.433 1078.56 349.516 1078.79 348.616 1079.26C347.716 1079.69 346.883 1080.29 346.116 1081.06L347.016 1076.76C347.783 1076.19 348.633 1075.77 349.566 1075.51C350.533 1075.21 351.466 1075.06 352.366 1075.06C353.833 1075.06 355.116 1075.36 356.216 1075.96C357.35 1076.56 358.216 1077.42 358.816 1078.56C359.45 1079.69 359.766 1081.07 359.766 1082.71C359.766 1084.41 359.433 1085.87 358.766 1087.11C358.133 1088.34 357.2 1089.29 355.966 1089.96C354.766 1090.62 353.3 1090.96 351.566 1090.96C350 1090.96 348.516 1090.57 347.116 1089.81C345.716 1089.01 344.583 1087.86 343.716 1086.36C342.883 1084.82 342.466 1082.94 342.466 1080.71C342.466 1078.51 342.95 1076.54 343.916 1074.81C344.916 1073.07 346.2 1071.61 347.766 1070.41C349.266 1069.27 350.883 1068.37 352.616 1067.71C354.383 1067.04 356.283 1066.57 358.316 1066.31C360.383 1066.01 362.6 1065.86 364.966 1065.86C369.2 1065.86 372.816 1066.44 375.816 1067.61C378.85 1068.74 381.3 1070.34 383.166 1072.41C384.333 1073.64 385.183 1075.06 385.716 1076.66C386.25 1078.22 386.516 1079.79 386.516 1081.36C386.516 1082.46 386.383 1083.57 386.116 1084.71C385.883 1085.84 385.45 1086.89 384.816 1087.86C384.183 1088.79 383.333 1089.54 382.266 1090.11C381.2 1090.67 379.833 1090.96 378.166 1090.96ZM355.716 1094.51C357.616 1094.51 359.15 1094.86 360.316 1095.56C361.516 1096.26 362.4 1097.14 362.966 1098.21C363.533 1099.31 363.816 1100.42 363.816 1101.56C363.816 1102.62 363.633 1103.57 363.266 1104.41C362.933 1105.27 362.45 1106.07 361.816 1106.81L357.416 1107.01C358.183 1106.27 358.75 1105.51 359.116 1104.71C359.483 1103.91 359.666 1103.07 359.666 1102.21C359.666 1101.44 359.533 1100.72 359.266 1100.06C359 1099.42 358.566 1098.91 357.966 1098.51C357.4 1098.14 356.6 1097.96 355.566 1097.96C355 1097.96 354.416 1098.07 353.816 1098.31C353.25 1098.54 352.766 1098.94 352.366 1099.51C351.966 1100.11 351.766 1100.91 351.766 1101.91C351.766 1102.87 351.95 1103.66 352.316 1104.26C352.716 1104.89 353.233 1105.37 353.866 1105.71C354.5 1106.07 355.183 1106.32 355.916 1106.46C356.683 1106.62 357.416 1106.71 358.116 1106.71L361.566 1106.61C362.866 1106.41 363.983 1106.06 364.916 1105.56C365.85 1105.09 366.666 1104.44 367.366 1103.61C368.1 1102.77 368.816 1101.76 369.516 1100.56C369.85 1099.99 370.133 1099.51 370.366 1099.11C370.633 1098.74 370.883 1098.42 371.116 1098.16L375.166 1099.31C374.833 1099.64 374.55 1100.02 374.316 1100.46C374.083 1100.89 373.833 1101.34 373.566 1101.81C372.666 1103.57 371.616 1105.09 370.416 1106.36C369.25 1107.62 367.85 1108.57 366.216 1109.21C364.583 1109.87 362.616 1110.21 360.316 1110.21H359.266C357.5 1110.21 355.866 1110.01 354.366 1109.61C352.866 1109.21 351.583 1108.59 350.516 1107.76C349.65 1107.06 348.966 1106.21 348.466 1105.21C347.966 1104.24 347.716 1103.09 347.716 1101.76C347.716 1100.29 348.05 1099.01 348.716 1097.91C349.416 1096.84 350.366 1096.01 351.566 1095.41C352.8 1094.81 354.183 1094.51 355.716 1094.51Z" fill="#7620E3"/>
</g>
<defs>
<linearGradient id="paint0_linear_4_82" x1="364" y1="796" x2="364" y2="944" gradientUnits="userSpaceOnUse">
<stop stop-color="#FF2424"/>
<stop offset="1" stop-color="#E13B24" stop-opacity="0"/>
</linearGradient>
<linearGradient id="paint1_linear_4_82" x1="364" y1="706" x2="364" y2="854" gradientUnits="userSpaceOnUse">
<stop stop-color="#D9D9D9"/>
<stop offset="1" stop-color="#141755" stop-opacity="0"/>
</linearGradient>
<clipPath id="clip0_4_82">
<rect width="728" height="1440" fill="white"/>
</clipPath>
</defs>
</svg>
